<?xml version="1.0" encoding="UTF-8" standalone="no" ?>
<!DOCTYPE svg PUBLIC "-//W3C//DTD SVG 1.1//EN" "http://www.w3.org/Graphics/SVG/1.1/DTD/svg11.dtd">
<svg xmlns="http://www.w3.org/2000/svg" xmlns:xlink="http://www.w3.org/1999/xlink" version="1.1" width="700" height="700" viewBox="0 0 700 700" xml:space="preserve">
<desc>Created with Fabric.js 4.6.0</desc>
<defs>
</defs>
<g transform="matrix(0.95 0 0 1 343.91 441.89)" id="CbYNZj2q8kO4yNUvQiANB"  >
<g style="" vector-effect="non-scaling-stroke"   >
		<g transform="matrix(1.33 0 0 1.33 0 175.01)" id="W58VxUE2RdrepLnvxWVzt"  >
<path style="stroke: none; stroke-width: 1; stroke-dasharray: none; stroke-linecap: butt; stroke-dashoffset: 0; stroke-linejoin: miter; stroke-miterlimit: 4; fill: rgb(0,0,0); fill-rule: nonzero; opacity: 1;" vector-effect="non-scaling-stroke"  transform=" translate(-350, -481.25)" d="M 358.75 424.38 L 341.25 424.38 C 338.832 424.38 336.875 426.337 336.875 428.755 L 336.875 533.755 C 336.875 536.173 338.832 538.13 341.25 538.13 C 343.668 538.13 345.625 536.173 345.625 533.755 L 345.625 433.135 L 354.375 433.135 L 354.375 533.755 C 354.375 536.173 356.332 538.13 358.75 538.13 C 361.168 538.13 363.125 536.173 363.125 533.755 L 363.125 428.755 C 363.125 427.5948 362.66406 426.4816 361.8438 425.6612 C 361.02353999999997 424.8408 359.9102 424.38 358.75 424.38 z" stroke-linecap="round" />
</g>
		<g transform="matrix(1.33 0 0 1.33 0 -93.34)" id="pvmKl4BMLFaHqmEO-xiYe"  >
<path style="stroke: none; stroke-width: 1; stroke-dasharray: none; stroke-linecap: butt; stroke-dashoffset: 0; stroke-linejoin: miter; stroke-miterlimit: 4; fill: rgb(0,0,0); fill-rule: nonzero; opacity: 1;" vector-effect="non-scaling-stroke"  transform=" translate(-350, -280)" d="M 605.21 163.72 C 597.6788 154.9192 587.2570000000001 149.087 575.815 147.282 L 474.9050000000001 131.34400000000002 C 456.0570000000001 128.37130000000002 437.0030000000001 126.87520000000002 417.9210000000001 126.87130000000002 L 371.8900000000001 126.87130000000002 L 371.8782810000001 117.68380000000002 C 376.8157810000001 116.66820000000001 381.2532810000001 113.98070000000001 384.4402810000001 110.07440000000003 C 387.6238810000001 106.17210000000003 389.3699810000001 101.28530000000002 389.3738810000001 96.24640000000002 L 389.3738810000001 72.68040000000002 C 394.5261810000001 70.78980000000001 398.9676810000001 67.35620000000002 402.1008810000001 62.84840000000002 C 405.23368100000005 58.34060000000002 406.89778100000007 52.97730000000002 406.87428100000005 47.48940000000002 L 406.87428100000005 34.99740000000001 C 406.87428100000005 33.83720000000001 406.41334100000006 32.72400000000001 405.59308100000004 31.90360000000001 C 404.772821 31.083200000000012 403.659481 30.622400000000013 402.49928100000005 30.622400000000013 L 382.56928100000005 30.622400000000013 C 379.057581 30.618494000000013 375.592681 29.829430000000013 372.42428100000006 28.313800000000015 L 365.5609810000001 25.032600000000016 C 355.56878100000006 20.247400000000017 343.8149810000001 20.927100000000017 334.4399810000001 26.833400000000015 C 325.0610810000001 32.73960000000002 319.37398100000013 43.04440000000001 319.37398100000013 54.12640000000002 L 319.37398100000013 83.12240000000001 C 319.3778870000001 89.37240000000001 322.71378100000015 95.14540000000001 328.12398100000013 98.27440000000001 L 328.12398100000013 126.87240000000001 L 282.07698100000016 126.87240000000001 C 262.99498100000017 126.87630600000001 243.93998100000016 128.37240000000003 225.09298100000015 131.3451 L 124.18298100000015 147.2831 C 110.52298100000016 149.4315 98.42498100000016 157.29909999999998 90.91698100000016 168.9081 C 83.40918100000016 180.5211 81.19818100000016 194.7791 84.84278100000016 208.1191 L 134.56178100000017 390.4291 C 135.19459100000017 392.7494 136.75318100000015 394.70640000000003 138.87038100000018 395.8432 C 140.9914810000002 396.97990000000004 143.48758100000018 397.19480000000004 145.7687810000002 396.43304 L 164.6207810000002 390.14784000000003 L 164.6207810000002 390.151746 C 168.2066810000002 388.972046 170.63248100000018 385.624446 170.62468100000018 381.850946 L 170.62468100000018 356.975946 L 174.5504810000002 360.55014600000004 C 176.3512810000002 362.19074600000005 178.6988810000002 363.10484600000007 181.13248100000018 363.10874600000005 L 181.15591900000018 363.10874600000005 C 185.44111900000019 363.10874600000005 189.23011900000017 360.32754600000004 190.51531900000018 356.241546 C 210.0353190000002 358.30014600000004 229.76131900000019 355.56185600000003 247.98431900000017 348.26884600000005 L 254.59371900000016 345.62434600000006 L 272.27371900000014 345.62434600000006 L 251.30071900000013 380.57734600000003 C 232.58971900000012 380.198436 214.27771900000013 375.11644600000005 198.04671900000014 365.80034600000005 C 197.03891900000013 365.22222600000003 195.84361900000013 365.06596600000006 194.72251900000015 365.37065600000005 C 193.60141900000013 365.67534600000005 192.64831900000016 366.41365600000006 192.07021900000015 367.42145600000003 C 191.49599900000015 368.429256 191.34365900000014 369.62455600000004 191.64834900000014 370.741756 C 191.95303900000013 371.862856 192.69134900000014 372.815956 193.69914900000015 373.39405600000003 C 210.69114900000014 383.132356 229.80114900000015 388.589056 249.37514900000014 389.29205600000006 L 249.37514900000014 533.752056 C 249.37514900000014 536.170056 251.33214900000013 538.127056 253.75014900000014 538.127056 C 256.16814900000014 538.127056 258.12514900000014 536.170056 258.12514900000014 533.752056 L 258.12514900000014 386.2120560000001 L 282.4771490000001 345.62605600000006 L 310.62514900000014 345.62605600000006 C 313.04314900000014 345.62605600000006 315.00014900000014 343.66905600000007 315.00014900000014 341.25105600000006 C 315.00014900000014 338.83305600000006 313.04314900000014 336.87605600000006 310.62514900000014 336.87605600000006 L 258.12514900000014 336.87605600000006 L 258.12514900000014 183.75605600000006 C 258.12514900000014 182.47085600000005 257.5587390000001 181.24825600000005 256.57824900000014 180.41625600000006 C 255.59777900000014 179.58422600000006 254.30094900000014 179.22875600000006 253.03134900000015 179.43969600000005 L 178.28934900000013 191.89669600000005 L 169.34014900000014 149.01369600000004 L 226.45714900000013 139.99419600000004 L 226.45324300000013 139.99419600000004 C 244.85524300000014 137.09579600000004 263.45324300000016 135.63479600000005 282.07824300000016 135.63089600000004 L 330.69124300000016 135.63089600000004 L 342.6132430000002 147.55289600000003 L 315.8632430000002 160.93189600000002 L 300.5932430000002 145.661896 C 298.8862430000002 143.950996 296.1127430000002 143.950996 294.4057430000002 145.661896 C 292.6948430000002 147.368896 292.6948430000002 150.14239600000002 294.4057430000002 151.849396 L 311.9057430000002 169.349396 C 313.2377430000002 170.681396 315.2729430000002 171.013496 316.9565430000002 170.16970600000002 L 330.5425430000002 163.376706 L 336.7925430000002 175.876706 L 323.7615430000002 340.916706 C 323.6912300000002 341.85029599999996 323.9217030000002 342.783906 324.4177930000002 343.580806 L 346.2927930000002 378.580806 C 347.09357300000016 379.858106 348.4958930000002 380.635506 350.00369300000017 380.635506 C 351.51149300000014 380.635506 352.91389300000014 379.85816600000004 353.71459300000015 378.580806 L 375.58959300000015 343.580806 C 376.08568300000013 342.783936 376.31615300000016 341.850306 376.24584300000015 340.916706 L 363.21484300000014 175.86670599999997 L 369.41794300000015 163.35070599999997 L 383.05094300000013 170.16710599999996 C 384.73844300000013 171.01085599999996 386.7697430000001 170.68272599999997 388.1017430000001 169.35069599999997 L 405.6017430000001 151.85069599999997 C 407.3126430000001 150.13979599999996 407.3126430000001 147.37019599999996 405.6017430000001 145.65929599999998 C 403.8947430000001 143.952296 401.1251430000001 143.952296 399.4142430000001 145.65929599999998 L 384.1372430000001 160.93229599999998 L 357.39124300000015 147.55729599999998 L 369.3322430000001 135.631296 L 417.9222430000001 135.631296 C 436.5472430000001 135.635202 455.1452430000001 137.096096 473.5432430000001 139.994596 L 530.660243 149.014096 L 521.718843 191.897096 L 446.976843 179.440096 C 445.707343 179.225256 444.406543 179.58462600000001 443.426043 180.41665600000002 C 442.441663 181.24868600000002 441.875243 182.46745600000003 441.875243 183.75645600000001 L 441.875243 336.876456 L 389.375243 336.876456 C 386.957243 336.876456 385.000243 338.833456 385.000243 341.251456 C 385.000243 343.669456 386.957243 345.626456 389.375243 345.626456 L 417.52324300000004 345.626456 L 441.875243 386.21245600000003 L 441.875243 533.752456 C 441.875243 536.1704560000001 443.832243 538.127456 446.250243 538.127456 C 448.668243 538.127456 450.625243 536.1704560000001 450.625243 533.752456 L 450.625243 389.292456 C 470.512243 388.569796 489.914243 382.948656 507.109243 372.929456 C 509.199043 371.71065600000003 509.902243 369.034956 508.687343 366.945056 C 507.468543 364.85915600000004 504.788943 364.152056 502.702943 365.370856 C 486.280943 374.933356 467.698943 380.171856 448.702943 380.589856 L 427.72594300000003 345.628856 L 445.40594300000004 345.628856 L 452.01144300000004 348.273356 L 452.015349 348.273356 C 470.234349 355.581956 489.964349 358.316356 509.484349 356.23425599999996 C 510.484349 359.433456 513.0468490000001 361.898356 516.281249 362.773356 C 519.5156489999999 363.648356 522.976549 362.812419 525.453149 360.554556 L 529.3750490000001 356.980356 L 529.3750490000001 381.855356 C 529.3672370000002 385.62485599999997 531.7852490000001 388.96865599999995 535.3633490000001 390.148356 L 554.226349 396.43355599999995 L 554.226349 396.4374619999999 C 556.507549 397.20308199999994 558.9997490000001 396.9921519999999 561.1247490000001 395.8593419999999 C 563.245849 394.7226419999999 564.8044490000001 392.7655419999999 565.433349 390.4413419999999 L 615.156349 208.1313419999999 C 619.4024489999999 192.5963419999999 615.679789 175.96734199999992 605.2149489999999 163.7253419999999 z M 249.37000000000006 338.28999999999996 L 244.72940000000006 340.14939999999996 C 227.30340000000007 347.10639999999995 208.41340000000005 349.58689999999996 189.78040000000004 347.35639999999995 L 154.13940000000005 204.78639999999996 L 249.36940000000004 188.91539999999995 z M 169.64300000000006 193.32999999999996 L 148.02600000000007 196.93159999999995 C 146.81900000000007 197.13471999999996 145.75650000000007 197.82612999999995 145.08460000000008 198.84959999999995 C 144.41663000000008 199.86909999999995 144.2056900000001 201.12299999999996 144.50257000000008 202.31049999999996 L 182.18257000000008 353.04049999999995 C 182.26069500000008 353.35690999999997 182.19038200000008 353.69283999999993 181.98726000000008 353.95065999999997 C 181.78804000000008 354.20847 181.47945000000007 354.36082 181.15132000000008 354.36082 C 180.88570000000007 354.368633 180.6278800000001 354.26707 180.43648000000007 354.08348 L 169.19048000000006 343.84548 C 167.90928000000005 342.68138 166.06158000000008 342.38068 164.47568000000007 343.07986 C 162.89368000000007 343.77908 161.87018000000006 345.34936 161.87018000000006 347.07986 L 161.87018000000006 381.84586 L 143.00718000000006 388.13886 L 93.28018000000006 205.81886000000003 C 90.29188000000006 194.87786000000003 92.10438000000006 183.18586000000002 98.26068000000006 173.66286000000002 C 104.42088000000007 164.13946 114.34268000000006 157.68986 125.54568000000006 155.92886000000001 L 160.68668000000005 150.37806 z M 328.12300000000005 54.12999999999997 C 328.12300000000005 46.05579999999997 332.26750000000004 38.54399999999997 339.10300000000007 34.23899999999997 C 345.93500000000006 29.93819999999997 354.5010000000001 29.442099999999968 361.7830000000001 32.93429999999997 L 368.64630000000005 36.21549999999997 C 372.994 38.28969999999997 377.75180000000006 39.37169999999997 382.5683000000001 39.37569999999997 L 398.1233000000001 39.37569999999997 L 398.1233000000001 47.49289999999998 C 398.14283100000006 51.610099999999974 396.75610000000006 55.610099999999974 394.1897000000001 58.828899999999976 C 391.6233000000001 62.04769999999998 388.03350000000006 64.28979999999997 384.0137000000001 65.18829999999997 C 382.6504000000001 65.50470999999997 381.2559000000001 65.66095999999997 379.8575000000001 65.64532999999997 C 377.94340000000005 65.63751799999997 376.0450000000001 65.32110999999998 374.2286000000001 64.71173999999998 L 351.3806000000001 57.098439999999975 C 350.0486000000001 56.653129999999976 348.5798000000001 56.87577999999998 347.4392000000001 57.699999999999974 C 346.2986000000001 58.52421999999997 345.6228000000001 59.844499999999975 345.6228000000001 61.25079999999998 C 345.62670600000007 63.340599999999974 345.2517100000001 65.41879999999998 344.5173000000001 67.37579999999997 C 339.2907000000001 64.84849999999997 333.1543000000001 65.07499999999997 328.1223000000001 67.97345999999997 z M 354.38500000000005 175.33999999999997 L 367.40100000000007 340.15 L 349.9990000000001 367.98999999999995 L 332.5970000000001 340.15 L 345.6130000000001 175.33999999999997 C 345.6755000000001 174.55093999999997 345.52315700000014 173.75409999999997 345.1676900000001 173.04309999999998 L 338.3746900000001 159.45709999999997 L 349.9996900000001 153.63679999999997 L 361.5816900000001 159.42979999999997 L 354.8277900000001 173.05479999999997 C 354.4801300000001 173.76182999999997 354.3277900000001 174.55089999999998 354.3863800000001 175.33999999999997 z M 349.99830000000003 142.563 L 336.87330000000003 129.438 L 336.87330000000003 95.493 C 336.87330000000003 93.63749999999999 335.70140000000004 91.98129999999999 333.95140000000004 91.3641 C 329.9397 89.9383 327.54120000000006 85.8329 328.26000000000005 81.63749999999999 C 328.98266000000007 77.44609999999999 332.61550000000005 74.37579999999998 336.87330000000003 74.37189999999998 C 339.16240000000005 74.36018099999998 341.3616 75.25861999999998 342.9866 76.86409999999998 C 343.90457000000004 77.76643999999997 345.1741 78.22349999999997 346.4554 78.10629999999998 C 347.7406 77.98910999999998 348.9046 77.31332999999998 349.6429 76.25859999999997 C 351.5843 73.49689999999997 352.9671 70.38749999999997 353.7171 67.09839999999997 L 371.4551 73.00459999999997 L 371.45900700000004 73.00459999999997 C 374.15040700000003 73.90693999999996 376.97070700000006 74.37569999999997 379.81060700000006 74.38739999999997 C 380.08013700000004 74.38739999999997 380.35748700000005 74.37177499999997 380.62310700000006 74.36396299999997 L 380.62310700000006 96.24696299999997 C 380.61529500000006 103.49306299999996 374.7442070000001 109.36396299999997 367.49810700000006 109.37196299999997 C 362.12310700000006 109.37586899999997 356.84210700000006 107.96176299999996 352.18610700000005 105.27816299999996 C 350.10410700000006 104.14536299999996 347.49470700000006 104.87972299999997 346.31110700000005 106.93436299999996 C 345.12360700000005 108.98516299999996 345.78766700000006 111.61016299999996 347.81110700000005 112.85236299999997 C 352.51810700000004 115.56326299999996 357.73300700000004 117.26646299999997 363.13110700000004 117.86016299999997 L 363.14673300000004 129.43416299999998 z M 455.2583 340.14300000000003 L 450.6177 338.28360000000004 L 450.6177 188.91360000000003 L 545.8477 204.78460000000004 L 510.21070000000003 347.3546 C 491.57770000000005 349.5851 472.68370000000004 347.1046 455.2617 340.1398 z M 606.7083 205.82300000000004 L 556.9893 388.13300000000004 L 538.1183 381.8518 L 538.1183 347.0788 C 538.1183 345.3483 537.0948999999999 343.778 535.5128 343.0788 C 533.9268999999999 342.37958 532.0792 342.68036 530.798 343.84442 L 519.552 354.08242 C 519.3566900000001 354.2582 519.10278 354.35586 518.84106 354.35976 C 518.51294 354.35976 518.20434 354.20742 518.00122 353.9496 C 517.802 353.69178999999997 517.7277799999999 353.35585 517.80981 353.03943999999996 L 555.48581 202.30943999999997 C 555.78268 201.12193999999997 555.571747 199.86803999999998 554.90378 198.84853999999996 C 554.2319 197.82513999999995 553.1693799999999 197.13373999999996 551.9623799999999 196.93053999999995 L 530.34538 193.32893999999996 L 539.31018 150.37593999999996 L 574.4511799999999 155.92673999999997 L 574.4511799999999 155.92283299999997 C 585.6501799999999 157.68843299999997 595.5721799999999 164.13763299999997 601.72818 173.66083299999997 C 607.88838 183.18423299999998 609.6969799999999 194.87583299999997 606.70868 205.81683299999997 z" stroke-linecap="round" />
</g>
		<g transform="matrix(1.33 0 0 1.33 -192.5 87.5)" id="H151S8n6U2Dxo4dDjOmbY"  >
<path style="stroke: none; stroke-width: 1; stroke-dasharray: none; stroke-linecap: butt; stroke-dashoffset: 0; stroke-linejoin: miter; stroke-miterlimit: 4; fill: rgb(0,0,0); fill-rule: nonzero; opacity: 1;" vector-effect="non-scaling-stroke"  transform=" translate(-205.63, -415.63)" d="M 206.91 408.16 L 198.16 416.91 C 196.4491 418.617 196.4491 421.39050000000003 198.16 423.0975 C 199.867 424.8084 202.6405 424.8084 204.3475 423.0975 L 213.0975 414.3475 C 214.8084 412.64050000000003 214.8084 409.867 213.0975 408.16 C 211.3905 406.44910000000004 208.617 406.44910000000004 206.91 408.16 z" stroke-linecap="round" />
</g>
		<g transform="matrix(1.33 0 0 1.33 -163.33 96.25)" id="bq6TcRhQcfstf3S7hxnRU"  >
<path style="stroke: none; stroke-width: 1; stroke-dasharray: none; stroke-linecap: butt; stroke-dashoffset: 0; stroke-linejoin: miter; stroke-miterlimit: 4; fill: rgb(0,0,0); fill-rule: nonzero; opacity: 1;" vector-effect="non-scaling-stroke"  transform=" translate(-227.5, -422.19)" d="M 227.5 411.25 C 225.082 411.25 223.125 413.207 223.125 415.625 L 223.125 428.75 C 223.125 431.168 225.082 433.125 227.5 433.125 C 229.918 433.125 231.875 431.168 231.875 428.75 L 231.875 415.625 C 231.875 414.4648 231.41406 413.3516 230.5938 412.5312 C 229.77353999999997 411.7108 228.66019999999997 411.25 227.5 411.25 z" stroke-linecap="round" />
</g>
		<g transform="matrix(1.33 0 0 1.33 -207.09 58.33)" id="OfCqzirkserbhO9d4uzwq"  >
<path style="stroke: none; stroke-width: 1; stroke-dasharray: none; stroke-linecap: butt; stroke-dashoffset: 0; stroke-linejoin: miter; stroke-miterlimit: 4; fill: rgb(0,0,0); fill-rule: nonzero; opacity: 1;" vector-effect="non-scaling-stroke"  transform=" translate(-194.68, -393.75)" d="M 205.62 393.75 C 205.62 392.5898 205.15906 391.4766 204.3388 390.6562 C 203.51853999999997 389.8358 202.40519999999998 389.375 201.245 389.375 L 188.12 389.375 C 185.702 389.375 183.745 391.332 183.745 393.75 C 183.745 396.168 185.702 398.125 188.12 398.125 L 201.245 398.125 C 202.4052 398.125 203.5184 397.66406 204.3388 396.8438 C 205.15919999999997 396.02353999999997 205.62 394.9102 205.62 393.75 z" stroke-linecap="round" />
</g>
		<g transform="matrix(1.33 0 0 1.33 192.49 99.17)" id="tad4-k1xdA9Mrf5DX7MGB"  >
<path style="stroke: none; stroke-width: 1; stroke-dasharray: none; stroke-linecap: butt; stroke-dashoffset: 0; stroke-linejoin: miter; stroke-miterlimit: 4; fill: rgb(0,0,0); fill-rule: nonzero; opacity: 1;" vector-effect="non-scaling-stroke"  transform=" translate(-494.37, -424.38)" d="M 493.09 416.91 C 491.383 415.19910000000004 488.60949999999997 415.19910000000004 486.9025 416.91 C 485.1916 418.617 485.1916 421.39050000000003 486.9025 423.0975 L 495.6525 431.8475 C 497.35949999999997 433.5584 500.133 433.5584 501.84 431.8475 C 503.55089999999996 430.14050000000003 503.55089999999996 427.367 501.84 425.66 z" stroke-linecap="round" />
</g>
		<g transform="matrix(1.33 0 0 1.33 163.33 107.92)" id="qS1q77vKCRQR4NJuImUSK"  >
<path style="stroke: none; stroke-width: 1; stroke-dasharray: none; stroke-linecap: butt; stroke-dashoffset: 0; stroke-linejoin: miter; stroke-miterlimit: 4; fill: rgb(0,0,0); fill-rule: nonzero; opacity: 1;" vector-effect="non-scaling-stroke"  transform=" translate(-472.5, -430.94)" d="M 472.5 420 C 470.082 420 468.125 421.957 468.125 424.375 L 468.125 437.5 C 468.125 439.918 470.082 441.875 472.5 441.875 C 474.918 441.875 476.875 439.918 476.875 437.5 L 476.875 424.375 C 476.875 423.2148 476.41406 422.1016 475.5938 421.2812 C 474.77353999999997 420.4608 473.6602 420 472.5 420 z" stroke-linecap="round" />
</g>
		<g transform="matrix(1.33 0 0 1.33 207.09 69.99)" id="5iDg1-xajyfNk5Y28Qwc8"  >
<path style="stroke: none; stroke-width: 1; stroke-dasharray: none; stroke-linecap: butt; stroke-dashoffset: 0; stroke-linejoin: miter; stroke-miterlimit: 4; fill: rgb(0,0,0); fill-rule: nonzero; opacity: 1;" vector-effect="non-scaling-stroke"  transform=" translate(-505.32, -402.5)" d="M 511.88 398.12 L 498.755 398.12 C 496.337 398.12 494.38 400.077 494.38 402.495 C 494.38 404.913 496.337 406.87 498.755 406.87 L 511.88 406.87 C 514.298 406.87 516.255 404.913 516.255 402.495 C 516.255 400.077 514.298 398.12 511.88 398.12 z" stroke-linecap="round" />
</g>
		<g transform="matrix(1.33 0 0 1.33 -370.72 299.22)" id="MtuMpnV4xCrcFgaF2ZwOR"  >
<path style="stroke: none; stroke-width: 1; stroke-dasharray: none; stroke-linecap: butt; stroke-dashoffset: 0; stroke-linejoin: miter; stroke-miterlimit: 4; fill: rgb(0,0,0); fill-rule: nonzero; opacity: 1;" vector-effect="non-scaling-stroke"  transform=" translate(-1.96, 1.99)" d="M 3.6562 -0.21875 C 3.4687 -0.125 3.26948 -0.05077999999999999 3.06245 0 C 2.86323 0.050781 2.6562 0.078125 2.43745 0.078125 C 1.7694800000000002 0.078125 1.23825 -0.10156499999999999 0.84365 -0.46875500000000003 C 0.45693 -0.843755 0.26553000000000004 -1.3476650000000001 0.26553000000000004 -1.984355 C 0.26553000000000004 -2.6288850000000004 0.45694 -3.1327550000000004 0.84365 -3.499955 C 1.23818 -3.874955 1.76943 -4.062455 2.43745 -4.062455 C 2.6562 -4.062455 2.86323 -4.035111 3.06245 -3.98433 C 3.26948 -3.929643 3.4687 -3.85933 3.6562 -3.76558 L 3.6562 -2.9374599999999997 C 3.4687 -3.0624599999999997 3.2812 -3.1562099999999997 3.0937 -3.2187099999999997 C 2.91401 -3.2812099999999997 2.72261 -3.3124599999999997 2.51558 -3.3124599999999997 C 2.14839 -3.3124599999999997 1.85933 -3.1913699999999996 1.64058 -2.95308 C 1.42964 -2.72261 1.32808 -2.39839 1.32808 -1.98433 C 1.32808 -1.57808 1.42964 -1.25386 1.64058 -1.01558 C 1.85933 -0.78511 2.14839 -0.6718299999999999 2.51558 -0.6718299999999999 C 2.72261 -0.6718299999999999 2.91402 -0.695267 3.0937 -0.7499549999999999 C 3.2812 -0.8124549999999999 3.4687 -0.9101149999999999 3.6562 -1.046835 z" stroke-linecap="round" />
</g>
		<g transform="matrix(1.33 0 0 1.33 -365.89 299.83)" id="piJe82_u2Cwx9Vb3r3cFP"  >
<path style="stroke: none; stroke-width: 1; stroke-dasharray: none; stroke-linecap: butt; stroke-dashoffset: 0; stroke-linejoin: miter; stroke-miterlimit: 4; fill: rgb(0,0,0); fill-rule: nonzero; opacity: 1;" vector-effect="non-scaling-stroke"  transform=" translate(-1.57, 1.53)" d="M 2.6875 -2.1719 C 2.601562 -2.210963 2.51953 -2.242213 2.4375 -2.26565 C 2.351562 -2.285181 2.26953 -2.2969 2.1875 -2.2969 C 1.9375 -2.2969 1.74219 -2.210963 1.60938 -2.0469 C 1.48438 -1.89065 1.42188 -1.6640899999999998 1.42188 -1.37502 L 1.42188 -0.00001999999999990898 L 0.45313000000000003 -0.00001999999999990898 L 0.45313000000000003 -2.98442 L 1.42188 -2.98442 L 1.42188 -2.5000400000000003 C 1.53516 -2.6953500000000004 1.67188 -2.83598 1.82813 -2.92192 C 1.9921900000000001 -3.01567 2.18751 -3.0625400000000003 2.40625 -3.0625400000000003 L 2.51563 -3.0625400000000003 C 2.554693 -3.0625400000000003 2.60938 -3.0547280000000003 2.67188 -3.0469150000000003 z" stroke-linecap="round" />
</g>
		<g transform="matrix(1.33 0 0 1.33 -361.94 299.89)" id="qykkTt72cwaKy4YmacRq9"  >
<path style="stroke: none; stroke-width: 1; stroke-dasharray: none; stroke-linecap: butt; stroke-dashoffset: 0; stroke-linejoin: miter; stroke-miterlimit: 4; fill: rgb(0,0,0); fill-rule: nonzero; opacity: 1;" vector-effect="non-scaling-stroke"  transform=" translate(-1.84, 1.49)" d="M 3.4375 -1.5 L 3.4375 -1.23438 L 1.2031 -1.23438 C 1.23435 -1.00391 1.31638 -0.8320400000000001 1.4531 -0.7187600000000001 C 1.5859100000000002 -0.6132900000000001 1.78122 -0.5625100000000001 2.0312200000000002 -0.5625100000000001 C 2.2382500000000003 -0.5625100000000001 2.4452800000000003 -0.585948 2.6562200000000002 -0.6406350000000001 C 2.8632500000000003 -0.7031350000000001 3.0781 -0.7968850000000001 3.2968400000000004 -0.9218850000000001 L 3.2968400000000004 -0.18750500000000003 C 3.0780900000000004 -0.09375500000000003 2.8515300000000003 -0.02344500000000002 2.6249600000000006 0.015614999999999962 C 2.3944900000000007 0.05467699999999996 2.1718400000000004 0.07811499999999996 1.9530800000000006 0.07811499999999996 C 1.4101100000000006 0.07811499999999996 0.9882400000000006 -0.05469500000000005 0.6874800000000005 -0.32813500000000007 C 0.3827900000000005 -0.6093850000000001 0.2343600000000005 -1.000015 0.2343600000000005 -1.500035 C 0.2343600000000005 -1.976595 0.3788900000000005 -2.3594150000000003 0.6718600000000006 -2.640635 C 0.9726400000000006 -2.921885 1.3788900000000006 -3.062515 1.8906600000000007 -3.062515 C 2.3594100000000005 -3.062515 2.7344100000000005 -2.9218949999999997 3.0156600000000005 -2.640635 C 3.2969100000000005 -2.3593750000000004 3.4375400000000003 -1.976575 3.4375400000000003 -1.500035 z M 2.46875 -1.82812 C 2.46875 -2.0039 2.410156 -2.14453 2.29687 -2.25 C 2.1914000000000002 -2.36328 2.0546800000000003 -2.42188 1.8906200000000002 -2.42188 C 1.7031200000000002 -2.42188 1.5507800000000003 -2.367193 1.4375000000000002 -2.26563 C 1.3203100000000003 -2.16016 1.2500000000000002 -2.01563 1.2187500000000002 -1.8281299999999998 z" stroke-linecap="round" />
</g>
		<g transform="matrix(1.33 0 0 1.33 -357.11 299.89)" id="ADk-BzRtXMNyChqyWr5DL"  >
<path style="stroke: none; stroke-width: 1; stroke-dasharray: none; stroke-linecap: butt; stroke-dashoffset: 0; stroke-linejoin: miter; stroke-miterlimit: 4; fill: rgb(0,0,0); fill-rule: nonzero; opacity: 1;" vector-effect="non-scaling-stroke"  transform=" translate(-1.75, 1.49)" d="M 1.7969 -1.3438 C 1.59768 -1.3438 1.4453399999999998 -1.3047380000000002 1.34378 -1.23442 C 1.25003 -1.17192 1.20316 -1.07036 1.20316 -0.93754 C 1.20316 -0.82035 1.238316 -0.7266 1.31254 -0.65629 C 1.394571 -0.59379 1.5078500000000001 -0.56254 1.65629 -0.56254 C 1.83207 -0.56254 1.98441 -0.62504 2.10941 -0.75004 C 2.23441 -0.87504 2.29691 -1.0352000000000001 2.29691 -1.23442 L 2.29691 -1.3438 z M 3.2657 -1.7031800000000001 L 3.2657 -0.00008000000000008001 L 2.29695 -0.00008000000000008001 L 2.29695 -0.4375800000000001 C 2.17195 -0.25789000000000006 2.02351 -0.1289900000000001 1.8594499999999998 -0.04696000000000006 C 1.7031999999999998 0.03507099999999995 1.5078899999999997 0.07803999999999994 1.2813299999999999 0.07803999999999994 C 0.9688299999999999 0.07803999999999994 0.7110199999999999 -0.007898000000000058 0.5157099999999999 -0.18758000000000008 C 0.3282099999999999 -0.3750800000000001 0.2344599999999999 -0.6094600000000001 0.2344599999999999 -0.8907 C 0.2344599999999999 -1.24226 0.3516499999999999 -1.50398 0.5938399999999999 -1.67195 C 0.83212 -1.8360100000000001 1.21103 -1.92195 1.73444 -1.92195 L 2.29694 -1.92195 L 2.29694 -1.98445 C 2.29694 -2.1407 2.23444 -2.25007 2.10944 -2.31257 C 1.9922500000000003 -2.382882 1.8125600000000002 -2.42195 1.5625600000000002 -2.42195 C 1.3516200000000003 -2.42195 1.1602200000000003 -2.398513 0.9844400000000002 -2.35945 C 0.8047500000000002 -2.316481 0.6446000000000003 -2.2578899999999997 0.5000600000000002 -2.18757 L 0.5000600000000002 -2.90632 C 0.6953700000000002 -2.957101 0.8985000000000002 -2.992258 1.1094400000000002 -3.0157 C 1.3164700000000003 -3.04695 1.5235000000000003 -3.062575 1.7344400000000002 -3.062575 C 2.2735000000000003 -3.062575 2.66413 -2.953195 2.90634 -2.7344549999999996 C 3.14462 -2.5235149999999997 3.26572 -2.1797649999999997 3.26572 -1.7032549999999997 z" stroke-linecap="round" />
</g>
		<g transform="matrix(1.33 0 0 1.33 -352.81 299.31)" id="q2EtqZGLiy_Z5PZ2fKaPq"  >
<path style="stroke: none; stroke-width: 1; stroke-dasharray: none; stroke-linecap: butt; stroke-dashoffset: 0; stroke-linejoin: miter; stroke-miterlimit: 4; fill: rgb(0,0,0); fill-rule: nonzero; opacity: 1;" vector-effect="non-scaling-stroke"  transform=" translate(-1.28, 1.92)" d="M 1.5 -3.8438 L 1.5 -2.98442 L 2.48438 -2.98442 L 2.48438 -2.3125400000000003 L 1.4999999999999998 -2.3125400000000003 L 1.4999999999999998 -1.0313400000000004 C 1.4999999999999998 -0.8946200000000004 1.5234379999999998 -0.8008700000000004 1.5781249999999998 -0.7500900000000004 C 1.6406249999999998 -0.7071210000000003 1.7539049999999998 -0.6875900000000004 1.9218749999999998 -0.6875900000000004 L 2.406255 -0.6875900000000004 L 2.406255 -0.00009000000000036756 L 1.5937549999999998 -0.00009000000000036756 C 1.2070349999999999 -0.00009000000000036756 0.9375049999999998 -0.07821500000000037 0.7812549999999998 -0.23447000000000037 C 0.6250049999999998 -0.3907250000000004 0.5468749999999998 -0.6563500000000003 0.5468749999999998 -1.0313500000000004 L 0.5468749999999998 -2.3125500000000003 L 0.07812499999999978 -2.3125500000000003 L 0.07812499999999978 -2.9844300000000006 L 0.5468749999999998 -2.9844300000000006 L 0.5468749999999998 -3.8438100000000004 z" stroke-linecap="round" />
</g>
		<g transform="matrix(1.33 0 0 1.33 -348.59 299.89)" id="uVFyTZaA8jP1KX4Wt0s1l"  >
<path style="stroke: none; stroke-width: 1; stroke-dasharray: none; stroke-linecap: butt; stroke-dashoffset: 0; stroke-linejoin: miter; stroke-miterlimit: 4; fill: rgb(0,0,0); fill-rule: nonzero; opacity: 1;" vector-effect="non-scaling-stroke"  transform=" translate(-1.84, 1.49)" d="M 3.4375 -1.5 L 3.4375 -1.23438 L 1.2031 -1.23438 C 1.23435 -1.00391 1.31638 -0.8320400000000001 1.4531 -0.7187600000000001 C 1.5859100000000002 -0.6132900000000001 1.78122 -0.5625100000000001 2.0312200000000002 -0.5625100000000001 C 2.2382500000000003 -0.5625100000000001 2.4452800000000003 -0.585948 2.6562200000000002 -0.6406350000000001 C 2.8632500000000003 -0.7031350000000001 3.0781 -0.7968850000000001 3.2968400000000004 -0.9218850000000001 L 3.2968400000000004 -0.18750500000000003 C 3.0780900000000004 -0.09375500000000003 2.8515300000000003 -0.02344500000000002 2.6249600000000006 0.015614999999999962 C 2.3944900000000007 0.05467699999999996 2.1718400000000004 0.07811499999999996 1.9530800000000006 0.07811499999999996 C 1.4101100000000006 0.07811499999999996 0.9882400000000006 -0.05469500000000005 0.6874800000000005 -0.32813500000000007 C 0.3827900000000005 -0.6093850000000001 0.2343600000000005 -1.000015 0.2343600000000005 -1.500035 C 0.2343600000000005 -1.976595 0.3788900000000005 -2.3594150000000003 0.6718600000000006 -2.640635 C 0.9726400000000006 -2.921885 1.3788900000000006 -3.062515 1.8906600000000007 -3.062515 C 2.3594100000000005 -3.062515 2.7344100000000005 -2.9218949999999997 3.0156600000000005 -2.640635 C 3.2969100000000005 -2.3593750000000004 3.4375400000000003 -1.976575 3.4375400000000003 -1.500035 z M 2.46875 -1.82812 C 2.46875 -2.0039 2.410156 -2.14453 2.29687 -2.25 C 2.1914000000000002 -2.36328 2.0546800000000003 -2.42188 1.8906200000000002 -2.42188 C 1.7031200000000002 -2.42188 1.5507800000000003 -2.367193 1.4375000000000002 -2.26563 C 1.3203100000000003 -2.16016 1.2500000000000002 -2.01563 1.2187500000000002 -1.8281299999999998 z" stroke-linecap="round" />
</g>
		<g transform="matrix(1.33 0 0 1.33 -343.62 299.16)" id="ZtPsZN-f-7EtdNBAzopyy"  >
<path style="stroke: none; stroke-width: 1; stroke-dasharray: none; stroke-linecap: butt; stroke-dashoffset: 0; stroke-linejoin: miter; stroke-miterlimit: 4; fill: rgb(0,0,0); fill-rule: nonzero; opacity: 1;" vector-effect="non-scaling-stroke"  transform=" translate(-1.85, 2.04)" d="M 2.5 -2.5469 L 2.5 -4.1563 L 3.45312 -4.1563 L 3.45312 -0.00009999999999976694 L 2.5 -0.00009999999999976694 L 2.5 -0.43759999999999977 C 2.36328 -0.25790999999999975 2.21875 -0.1290099999999998 2.0625 -0.046979999999999744 C 1.90625 0.03505100000000026 1.72266 0.07802000000000026 1.51562 0.07802000000000026 C 1.14062 0.07802000000000026 0.8320299999999999 -0.06650999999999974 0.5937399999999999 -0.35947999999999974 C 0.3632699999999999 -0.6485399999999997 0.24998999999999993 -1.0313599999999998 0.24998999999999993 -1.5000799999999999 C 0.24998999999999993 -1.95711 0.3632699999999999 -2.33211 0.5937399999999999 -2.6250799999999996 C 0.83202 -2.9141399999999997 1.14062 -3.0625799999999996 1.51562 -3.0625799999999996 C 1.71093 -3.0625799999999996 1.89062 -3.019611 2.04687 -2.9375799999999996 C 2.2109300000000003 -2.8516419999999996 2.36328 -2.7227399999999995 2.4999900000000004 -2.5469599999999994 z M 1.85938 -0.6093999999999999 C 2.06641 -0.6093999999999999 2.22266 -0.6797129999999999 2.32813 -0.8281499999999999 C 2.44141 -0.9843999999999999 2.5000099999999996 -1.20706 2.5000099999999996 -1.50003 C 2.5000099999999996 -1.78128 2.441416 -1.99222 2.32813 -2.14065 C 2.22266 -2.2969 2.06641 -2.3750299999999998 1.8593799999999998 -2.3750299999999998 C 1.6601599999999999 -2.3750299999999998 1.5039099999999999 -2.2969049999999998 1.3906299999999998 -2.14065 C 1.2851599999999999 -1.99221 1.2343799999999998 -1.78127 1.2343799999999998 -1.50003 C 1.2343799999999998 -1.20706 1.2851609999999998 -0.98441 1.3906299999999998 -0.8281499999999999 C 1.5039099999999999 -0.6797099999999999 1.6601599999999999 -0.6093999999999999 1.8593799999999998 -0.6093999999999999 z" stroke-linecap="round" />
</g>
		<g transform="matrix(1.33 0 0 1.33 -335.58 299.16)" id="13dPtds5D8kTGib14TKTM"  >
<path style="stroke: none; stroke-width: 1; stroke-dasharray: none; stroke-linecap: butt; stroke-dashoffset: 0; stroke-linejoin: miter; stroke-miterlimit: 4; fill: rgb(0,0,0); fill-rule: nonzero; opacity: 1;" vector-effect="non-scaling-stroke"  transform=" translate(-2.06, 2.04)" d="M 2.0469 -0.60938 C 2.25393 -0.60938 2.41018 -0.679693 2.51565 -0.82813 C 2.62893 -0.98438 2.6875299999999998 -1.2070400000000001 2.6875299999999998 -1.50001 C 2.6875299999999998 -1.78126 2.628936 -1.9922 2.51565 -2.14063 C 2.41018 -2.29688 2.25393 -2.3750099999999996 2.0469 -2.3750099999999996 C 1.84768 -2.3750099999999996 1.69143 -2.2968849999999996 1.57815 -2.14063 C 1.47268 -1.99219 1.4219 -1.7812499999999998 1.4219 -1.5000099999999998 C 1.4219 -1.20704 1.472681 -0.9843899999999999 1.57815 -0.8281299999999998 C 1.69143 -0.6796899999999998 1.84768 -0.6093799999999998 2.0469 -0.6093799999999998 z M 1.4219 -2.54688 C 1.5469 -2.72266 1.68752 -2.8515699999999997 1.84378 -2.9375 C 2.00784 -3.019531 2.19534 -3.0625 2.4062799999999998 -3.0625 C 2.76956 -3.0625 3.07034 -2.91406 3.3125299999999998 -2.625 C 3.55081 -2.33203 3.6719099999999996 -1.95703 3.6719099999999996 -1.5 C 3.6719099999999996 -1.03125 3.5508199999999994 -0.64844 3.3125299999999998 -0.35939999999999994 C 3.07034 -0.06642999999999993 2.76956 0.07810000000000006 2.4062799999999998 0.07810000000000006 C 2.19534 0.07810000000000006 2.00784 0.03513100000000006 1.8437799999999998 -0.04689999999999994 C 1.6875299999999998 -0.12893099999999996 1.5468999999999997 -0.25783999999999996 1.4218999999999997 -0.43751999999999996 L 1.4218999999999997 -0.00001999999999996449 L 0.4531499999999997 -0.00001999999999996449 L 0.4531499999999997 -4.15622 L 1.4218999999999997 -4.15622 z" stroke-linecap="round" />
</g>
		<g transform="matrix(1.33 0 0 1.33 -330.76 300.68)" id="PpbokGPyTWaDy2Gt78q2e"  >
<path style="stroke: none; stroke-width: 1; stroke-dasharray: none; stroke-linecap: butt; stroke-dashoffset: 0; stroke-linejoin: miter; stroke-miterlimit: 4; fill: rgb(0,0,0); fill-rule: nonzero; opacity: 1;" vector-effect="non-scaling-stroke"  transform=" translate(-1.77, 0.9)" d="M 0.0625 -2.9844 L 1.01562 -2.9844 L 1.82812 -0.9687999999999999 L 2.51562 -2.9844 L 3.4687400000000004 -2.9844 L 2.2031400000000003 0.2812000000000001 C 2.0781400000000003 0.6132300000000002 1.9297000000000004 0.8476100000000001 1.7656400000000003 0.9843200000000001 C 1.5976700000000004 1.1171300000000002 1.3750200000000004 1.18744 1.0937600000000003 1.18744 L 0.5468800000000003 1.18744 L 0.5468800000000003 0.5468200000000001 L 0.8437600000000003 0.5468200000000001 C 1.0078200000000004 0.5468200000000001 1.1289200000000004 0.519476 1.2031400000000003 0.4686950000000001 C 1.2734530000000004 0.41400700000000007 1.3320500000000004 0.3280750000000001 1.3750200000000004 0.20307500000000006 L 1.4062700000000004 0.10932500000000006 z" stroke-linecap="round" />
</g>
		<g transform="matrix(1.33 0 0 1.33 -323.2 299.22)" id="2ePZXBAf8wTfOgIQyopop"  >
<path style="stroke: none; stroke-width: 1; stroke-dasharray: none; stroke-linecap: butt; stroke-dashoffset: 0; stroke-linejoin: miter; stroke-miterlimit: 4; fill: rgb(0,0,0); fill-rule: nonzero; opacity: 1;" vector-effect="non-scaling-stroke"  transform=" translate(-1.96, 1.99)" d="M 3.6562 -0.21875 C 3.4687 -0.125 3.26948 -0.05077999999999999 3.06245 0 C 2.86323 0.050781 2.6562 0.078125 2.43745 0.078125 C 1.7694800000000002 0.078125 1.23825 -0.10156499999999999 0.84365 -0.46875500000000003 C 0.45693 -0.843755 0.26553000000000004 -1.3476650000000001 0.26553000000000004 -1.984355 C 0.26553000000000004 -2.6288850000000004 0.45694 -3.1327550000000004 0.84365 -3.499955 C 1.23818 -3.874955 1.76943 -4.062455 2.43745 -4.062455 C 2.6562 -4.062455 2.86323 -4.035111 3.06245 -3.98433 C 3.26948 -3.929643 3.4687 -3.85933 3.6562 -3.76558 L 3.6562 -2.9374599999999997 C 3.4687 -3.0624599999999997 3.2812 -3.1562099999999997 3.0937 -3.2187099999999997 C 2.91401 -3.2812099999999997 2.72261 -3.3124599999999997 2.51558 -3.3124599999999997 C 2.14839 -3.3124599999999997 1.85933 -3.1913699999999996 1.64058 -2.95308 C 1.42964 -2.72261 1.32808 -2.39839 1.32808 -1.98433 C 1.32808 -1.57808 1.42964 -1.25386 1.64058 -1.01558 C 1.85933 -0.78511 2.14839 -0.6718299999999999 2.51558 -0.6718299999999999 C 2.72261 -0.6718299999999999 2.91402 -0.695267 3.0937 -0.7499549999999999 C 3.2812 -0.8124549999999999 3.4687 -0.9101149999999999 3.6562 -1.046835 z" stroke-linecap="round" />
</g>
		<g transform="matrix(1.33 0 0 1.33 -317.85 299.1)" id="ZFVZpLpG0AgQkbBeEs06T"  >
<path style="stroke: none; stroke-width: 1; stroke-dasharray: none; stroke-linecap: butt; stroke-dashoffset: 0; stroke-linejoin: miter; stroke-miterlimit: 4; fill: rgb(0,0,0); fill-rule: nonzero; opacity: 1;" vector-effect="non-scaling-stroke"  transform=" translate(-1.96, 2.08)" d="M 3.4688 -1.8281 L 3.4688 0 L 2.50005 0 L 2.50005 -1.3906 C 2.50005 -1.6484100000000002 2.492238 -1.8281 2.484425 -1.92185 C 2.472706 -2.02341 2.453175 -2.09763 2.421925 -2.1406 C 2.390675 -2.2031 2.335988 -2.24998 2.265675 -2.2812200000000002 C 2.203175 -2.320282 2.132865 -2.3437200000000002 2.0625549999999997 -2.3437200000000002 C 1.8516149999999998 -2.3437200000000002 1.6914649999999998 -2.2655950000000002 1.5781749999999997 -2.1093400000000004 C 1.4727049999999997 -1.9530900000000004 1.4219249999999997 -1.7382500000000005 1.4219249999999997 -1.4687200000000005 L 1.4219249999999997 0.00007999999999963592 L 0.45317499999999966 0.00007999999999963592 L 0.45317499999999966 -4.1561200000000005 L 1.4219249999999997 -4.1561200000000005 L 1.4219249999999997 -2.5467200000000005 C 1.5547349999999998 -2.7225000000000006 1.7070849999999997 -2.8514100000000004 1.8750449999999996 -2.9373400000000007 C 2.0391049999999997 -3.019371000000001 2.2187949999999996 -3.0623400000000007 2.4062949999999996 -3.0623400000000007 C 2.7500449999999996 -3.0623400000000007 3.0078549999999997 -2.952960000000001 3.1875449999999996 -2.7342200000000005 C 3.3750449999999996 -2.5232800000000006 3.4687949999999996 -2.2225000000000006 3.4687949999999996 -1.8279700000000005 z" stroke-linecap="round" />
</g>
		<g transform="matrix(1.33 0 0 1.33 -312.94 299.89)" id="pUjSPv8D0HKfF8nLQQogn"  >
<path style="stroke: none; stroke-width: 1; stroke-dasharray: none; stroke-linecap: butt; stroke-dashoffset: 0; stroke-linejoin: miter; stroke-miterlimit: 4; fill: rgb(0,0,0); fill-rule: nonzero; opacity: 1;" vector-effect="non-scaling-stroke"  transform=" translate(-1.75, 1.49)" d="M 1.7969 -1.3438 C 1.59768 -1.3438 1.4453399999999998 -1.3047380000000002 1.34378 -1.23442 C 1.25003 -1.17192 1.20316 -1.07036 1.20316 -0.93754 C 1.20316 -0.82035 1.238316 -0.7266 1.31254 -0.65629 C 1.394571 -0.59379 1.5078500000000001 -0.56254 1.65629 -0.56254 C 1.83207 -0.56254 1.98441 -0.62504 2.10941 -0.75004 C 2.23441 -0.87504 2.29691 -1.0352000000000001 2.29691 -1.23442 L 2.29691 -1.3438 z M 3.2657 -1.7031800000000001 L 3.2657 -0.00008000000000008001 L 2.29695 -0.00008000000000008001 L 2.29695 -0.4375800000000001 C 2.17195 -0.25789000000000006 2.02351 -0.1289900000000001 1.8594499999999998 -0.04696000000000006 C 1.7031999999999998 0.03507099999999995 1.5078899999999997 0.07803999999999994 1.2813299999999999 0.07803999999999994 C 0.9688299999999999 0.07803999999999994 0.7110199999999999 -0.007898000000000058 0.5157099999999999 -0.18758000000000008 C 0.3282099999999999 -0.3750800000000001 0.2344599999999999 -0.6094600000000001 0.2344599999999999 -0.8907 C 0.2344599999999999 -1.24226 0.3516499999999999 -1.50398 0.5938399999999999 -1.67195 C 0.83212 -1.8360100000000001 1.21103 -1.92195 1.73444 -1.92195 L 2.29694 -1.92195 L 2.29694 -1.98445 C 2.29694 -2.1407 2.23444 -2.25007 2.10944 -2.31257 C 1.9922500000000003 -2.382882 1.8125600000000002 -2.42195 1.5625600000000002 -2.42195 C 1.3516200000000003 -2.42195 1.1602200000000003 -2.398513 0.9844400000000002 -2.35945 C 0.8047500000000002 -2.316481 0.6446000000000003 -2.2578899999999997 0.5000600000000002 -2.18757 L 0.5000600000000002 -2.90632 C 0.6953700000000002 -2.957101 0.8985000000000002 -2.992258 1.1094400000000002 -3.0157 C 1.3164700000000003 -3.04695 1.5235000000000003 -3.062575 1.7344400000000002 -3.062575 C 2.2735000000000003 -3.062575 2.66413 -2.953195 2.90634 -2.7344549999999996 C 3.14462 -2.5235149999999997 3.26572 -2.1797649999999997 3.26572 -1.7032549999999997 z" stroke-linecap="round" />
</g>
		<g transform="matrix(1.33 0 0 1.33 -308.65 299.31)" id="hXTHifZpLwyMBLwqdIyAG"  >
<path style="stroke: none; stroke-width: 1; stroke-dasharray: none; stroke-linecap: butt; stroke-dashoffset: 0; stroke-linejoin: miter; stroke-miterlimit: 4; fill: rgb(0,0,0); fill-rule: nonzero; opacity: 1;" vector-effect="non-scaling-stroke"  transform=" translate(-1.28, 1.92)" d="M 1.5 -3.8438 L 1.5 -2.98442 L 2.48438 -2.98442 L 2.48438 -2.3125400000000003 L 1.4999999999999998 -2.3125400000000003 L 1.4999999999999998 -1.0313400000000004 C 1.4999999999999998 -0.8946200000000004 1.5234379999999998 -0.8008700000000004 1.5781249999999998 -0.7500900000000004 C 1.6406249999999998 -0.7071210000000003 1.7539049999999998 -0.6875900000000004 1.9218749999999998 -0.6875900000000004 L 2.406255 -0.6875900000000004 L 2.406255 -0.00009000000000036756 L 1.5937549999999998 -0.00009000000000036756 C 1.2070349999999999 -0.00009000000000036756 0.9375049999999998 -0.07821500000000037 0.7812549999999998 -0.23447000000000037 C 0.6250049999999998 -0.3907250000000004 0.5468749999999998 -0.6563500000000003 0.5468749999999998 -1.0313500000000004 L 0.5468749999999998 -2.3125500000000003 L 0.07812499999999978 -2.3125500000000003 L 0.07812499999999978 -2.9844300000000006 L 0.5468749999999998 -2.9844300000000006 L 0.5468749999999998 -3.8438100000000004 z" stroke-linecap="round" />
</g>
		<g transform="matrix(1.33 0 0 1.33 -305.16 299.31)" id="B26cfJuJyRXxYaZXDTUFP"  >
<path style="stroke: none; stroke-width: 1; stroke-dasharray: none; stroke-linecap: butt; stroke-dashoffset: 0; stroke-linejoin: miter; stroke-miterlimit: 4; fill: rgb(0,0,0); fill-rule: nonzero; opacity: 1;" vector-effect="non-scaling-stroke"  transform=" translate(-1.28, 1.92)" d="M 1.5 -3.8438 L 1.5 -2.98442 L 2.48438 -2.98442 L 2.48438 -2.3125400000000003 L 1.4999999999999998 -2.3125400000000003 L 1.4999999999999998 -1.0313400000000004 C 1.4999999999999998 -0.8946200000000004 1.5234379999999998 -0.8008700000000004 1.5781249999999998 -0.7500900000000004 C 1.6406249999999998 -0.7071210000000003 1.7539049999999998 -0.6875900000000004 1.9218749999999998 -0.6875900000000004 L 2.406255 -0.6875900000000004 L 2.406255 -0.00009000000000036756 L 1.5937549999999998 -0.00009000000000036756 C 1.2070349999999999 -0.00009000000000036756 0.9375049999999998 -0.07821500000000037 0.7812549999999998 -0.23447000000000037 C 0.6250049999999998 -0.3907250000000004 0.5468749999999998 -0.6563500000000003 0.5468749999999998 -1.0313500000000004 L 0.5468749999999998 -2.3125500000000003 L 0.07812499999999978 -2.3125500000000003 L 0.07812499999999978 -2.9844300000000006 L 0.5468749999999998 -2.9844300000000006 L 0.5468749999999998 -3.8438100000000004 z" stroke-linecap="round" />
</g>
		<g transform="matrix(1.33 0 0 1.33 -301.05 299.89)" id="12No6fc95OIKhkl-WkZ_y"  >
<path style="stroke: none; stroke-width: 1; stroke-dasharray: none; stroke-linecap: butt; stroke-dashoffset: 0; stroke-linejoin: miter; stroke-miterlimit: 4; fill: rgb(0,0,0); fill-rule: nonzero; opacity: 1;" vector-effect="non-scaling-stroke"  transform=" translate(-1.75, 1.49)" d="M 1.7969 -1.3438 C 1.59768 -1.3438 1.4453399999999998 -1.3047380000000002 1.34378 -1.23442 C 1.25003 -1.17192 1.20316 -1.07036 1.20316 -0.93754 C 1.20316 -0.82035 1.238316 -0.7266 1.31254 -0.65629 C 1.394571 -0.59379 1.5078500000000001 -0.56254 1.65629 -0.56254 C 1.83207 -0.56254 1.98441 -0.62504 2.10941 -0.75004 C 2.23441 -0.87504 2.29691 -1.0352000000000001 2.29691 -1.23442 L 2.29691 -1.3438 z M 3.2657 -1.7031800000000001 L 3.2657 -0.00008000000000008001 L 2.29695 -0.00008000000000008001 L 2.29695 -0.4375800000000001 C 2.17195 -0.25789000000000006 2.02351 -0.1289900000000001 1.8594499999999998 -0.04696000000000006 C 1.7031999999999998 0.03507099999999995 1.5078899999999997 0.07803999999999994 1.2813299999999999 0.07803999999999994 C 0.9688299999999999 0.07803999999999994 0.7110199999999999 -0.007898000000000058 0.5157099999999999 -0.18758000000000008 C 0.3282099999999999 -0.3750800000000001 0.2344599999999999 -0.6094600000000001 0.2344599999999999 -0.8907 C 0.2344599999999999 -1.24226 0.3516499999999999 -1.50398 0.5938399999999999 -1.67195 C 0.83212 -1.8360100000000001 1.21103 -1.92195 1.73444 -1.92195 L 2.29694 -1.92195 L 2.29694 -1.98445 C 2.29694 -2.1407 2.23444 -2.25007 2.10944 -2.31257 C 1.9922500000000003 -2.382882 1.8125600000000002 -2.42195 1.5625600000000002 -2.42195 C 1.3516200000000003 -2.42195 1.1602200000000003 -2.398513 0.9844400000000002 -2.35945 C 0.8047500000000002 -2.316481 0.6446000000000003 -2.2578899999999997 0.5000600000000002 -2.18757 L 0.5000600000000002 -2.90632 C 0.6953700000000002 -2.957101 0.8985000000000002 -2.992258 1.1094400000000002 -3.0157 C 1.3164700000000003 -3.04695 1.5235000000000003 -3.062575 1.7344400000000002 -3.062575 C 2.2735000000000003 -3.062575 2.66413 -2.953195 2.90634 -2.7344549999999996 C 3.14462 -2.5235149999999997 3.26572 -2.1797649999999997 3.26572 -1.7032549999999997 z" stroke-linecap="round" />
</g>
		<g transform="matrix(1.33 0 0 1.33 -295.71 300.59)" id="Uj2nk3WQVXZN-zSuam_-X"  >
<path style="stroke: none; stroke-width: 1; stroke-dasharray: none; stroke-linecap: butt; stroke-dashoffset: 0; stroke-linejoin: miter; stroke-miterlimit: 4; fill: rgb(0,0,0); fill-rule: nonzero; opacity: 1;" vector-effect="non-scaling-stroke"  transform=" translate(-2.06, 0.96)" d="M 1.4219 -0.4375 L 1.4219 1.1406 L 0.45314999999999994 1.1406 L 0.45314999999999994 -2.9844 L 1.4219 -2.9844 L 1.4219 -2.5469 C 1.5469 -2.72268 1.68752 -2.85159 1.84378 -2.93752 C 2.00784 -3.0195510000000003 2.19534 -3.06252 2.4062799999999998 -3.06252 C 2.76956 -3.06252 3.07034 -2.9140800000000002 3.3125299999999998 -2.62502 C 3.55081 -2.33205 3.6719099999999996 -1.9570500000000002 3.6719099999999996 -1.5000200000000001 C 3.6719099999999996 -1.0312700000000001 3.5508199999999994 -0.6484600000000001 3.3125299999999998 -0.3594200000000001 C 3.07034 -0.06645000000000006 2.76956 0.07807999999999993 2.4062799999999998 0.07807999999999993 C 2.19534 0.07807999999999993 2.00784 0.03511099999999993 1.8437799999999998 -0.04692000000000007 C 1.6875299999999998 -0.1289510000000001 1.5468999999999997 -0.2578600000000001 1.4218999999999997 -0.4375400000000001 z M 2.0469 -2.375 C 1.84768 -2.375 1.69143 -2.296875 1.57815 -2.14062 C 1.47268 -1.9921800000000003 1.4219 -1.7812400000000002 1.4219 -1.5000000000000002 C 1.4219 -1.2070300000000003 1.472681 -0.9843800000000003 1.57815 -0.8281200000000002 C 1.69143 -0.6796800000000002 1.84768 -0.6093700000000002 2.0469 -0.6093700000000002 C 2.25393 -0.6093700000000002 2.41018 -0.6796830000000001 2.51565 -0.8281200000000002 C 2.62893 -0.9843700000000002 2.6875299999999998 -1.2070300000000003 2.6875299999999998 -1.5000000000000002 C 2.6875299999999998 -1.7812500000000002 2.628936 -1.9921900000000003 2.51565 -2.14062 C 2.41018 -2.29687 2.25393 -2.375 2.0469 -2.375 z" stroke-linecap="round" />
</g>
		<g transform="matrix(1.33 0 0 1.33 -290.91 299.89)" id="ABScgVZZ3iKTvDx-Waf2-"  >
<path style="stroke: none; stroke-width: 1; stroke-dasharray: none; stroke-linecap: butt; stroke-dashoffset: 0; stroke-linejoin: miter; stroke-miterlimit: 4; fill: rgb(0,0,0); fill-rule: nonzero; opacity: 1;" vector-effect="non-scaling-stroke"  transform=" translate(-1.75, 1.49)" d="M 1.7969 -1.3438 C 1.59768 -1.3438 1.4453399999999998 -1.3047380000000002 1.34378 -1.23442 C 1.25003 -1.17192 1.20316 -1.07036 1.20316 -0.93754 C 1.20316 -0.82035 1.238316 -0.7266 1.31254 -0.65629 C 1.394571 -0.59379 1.5078500000000001 -0.56254 1.65629 -0.56254 C 1.83207 -0.56254 1.98441 -0.62504 2.10941 -0.75004 C 2.23441 -0.87504 2.29691 -1.0352000000000001 2.29691 -1.23442 L 2.29691 -1.3438 z M 3.2657 -1.7031800000000001 L 3.2657 -0.00008000000000008001 L 2.29695 -0.00008000000000008001 L 2.29695 -0.4375800000000001 C 2.17195 -0.25789000000000006 2.02351 -0.1289900000000001 1.8594499999999998 -0.04696000000000006 C 1.7031999999999998 0.03507099999999995 1.5078899999999997 0.07803999999999994 1.2813299999999999 0.07803999999999994 C 0.9688299999999999 0.07803999999999994 0.7110199999999999 -0.007898000000000058 0.5157099999999999 -0.18758000000000008 C 0.3282099999999999 -0.3750800000000001 0.2344599999999999 -0.6094600000000001 0.2344599999999999 -0.8907 C 0.2344599999999999 -1.24226 0.3516499999999999 -1.50398 0.5938399999999999 -1.67195 C 0.83212 -1.8360100000000001 1.21103 -1.92195 1.73444 -1.92195 L 2.29694 -1.92195 L 2.29694 -1.98445 C 2.29694 -2.1407 2.23444 -2.25007 2.10944 -2.31257 C 1.9922500000000003 -2.382882 1.8125600000000002 -2.42195 1.5625600000000002 -2.42195 C 1.3516200000000003 -2.42195 1.1602200000000003 -2.398513 0.9844400000000002 -2.35945 C 0.8047500000000002 -2.316481 0.6446000000000003 -2.2578899999999997 0.5000600000000002 -2.18757 L 0.5000600000000002 -2.90632 C 0.6953700000000002 -2.957101 0.8985000000000002 -2.992258 1.1094400000000002 -3.0157 C 1.3164700000000003 -3.04695 1.5235000000000003 -3.062575 1.7344400000000002 -3.062575 C 2.2735000000000003 -3.062575 2.66413 -2.953195 2.90634 -2.7344549999999996 C 3.14462 -2.5235149999999997 3.26572 -2.1797649999999997 3.26572 -1.7032549999999997 z" stroke-linecap="round" />
</g>
		<g transform="matrix(1.33 0 0 1.33 -286.62 299.31)" id="DlUxeCmtgFv3VgkQylK7J"  >
<path style="stroke: none; stroke-width: 1; stroke-dasharray: none; stroke-linecap: butt; stroke-dashoffset: 0; stroke-linejoin: miter; stroke-miterlimit: 4; fill: rgb(0,0,0); fill-rule: nonzero; opacity: 1;" vector-effect="non-scaling-stroke"  transform=" translate(-1.28, 1.92)" d="M 1.5 -3.8438 L 1.5 -2.98442 L 2.48438 -2.98442 L 2.48438 -2.3125400000000003 L 1.4999999999999998 -2.3125400000000003 L 1.4999999999999998 -1.0313400000000004 C 1.4999999999999998 -0.8946200000000004 1.5234379999999998 -0.8008700000000004 1.5781249999999998 -0.7500900000000004 C 1.6406249999999998 -0.7071210000000003 1.7539049999999998 -0.6875900000000004 1.9218749999999998 -0.6875900000000004 L 2.406255 -0.6875900000000004 L 2.406255 -0.00009000000000036756 L 1.5937549999999998 -0.00009000000000036756 C 1.2070349999999999 -0.00009000000000036756 0.9375049999999998 -0.07821500000000037 0.7812549999999998 -0.23447000000000037 C 0.6250049999999998 -0.3907250000000004 0.5468749999999998 -0.6563500000000003 0.5468749999999998 -1.0313500000000004 L 0.5468749999999998 -2.3125500000000003 L 0.07812499999999978 -2.3125500000000003 L 0.07812499999999978 -2.9844300000000006 L 0.5468749999999998 -2.9844300000000006 L 0.5468749999999998 -3.8438100000000004 z" stroke-linecap="round" />
</g>
		<g transform="matrix(1.33 0 0 1.33 -371.65 306.4)" id="Tx6GpzjFCeoB_Tyq3c7Ku"  >
<path style="stroke: none; stroke-width: 1; stroke-dasharray: none; stroke-linecap: butt; stroke-dashoffset: 0; stroke-linejoin: miter; stroke-miterlimit: 4; fill: rgb(0,0,0); fill-rule: nonzero; opacity: 1;" vector-effect="non-scaling-stroke"  transform=" translate(-1.27, 2.08)" d="M 2.4219 -4.1562 L 2.4219 -3.5312 L 1.90628 -3.5312 C 1.76956 -3.5312 1.6719 -3.5038560000000003 1.6094 -3.453075 C 1.554713 -3.398388 1.531275 -3.316355 1.531275 -3.203075 L 1.531275 -2.984325 L 2.359395 -2.984325 L 2.359395 -2.3124450000000003 L 1.5312750000000002 -2.3124450000000003 L 1.5312750000000002 0.00005499999999969418 L 0.5781550000000002 0.00005499999999969418 L 0.5781550000000002 -2.3124450000000003 L 0.1094050000000002 -2.3124450000000003 L 0.1094050000000002 -2.984325 L 0.5781550000000002 -2.984325 L 0.5781550000000002 -3.203075 C 0.5781550000000002 -3.523385 0.6640920000000002 -3.765575 0.8437750000000002 -3.921825 C 1.0312750000000002 -4.078075 1.3164350000000002 -4.156205 1.7031550000000002 -4.156205 z" stroke-linecap="round" />
</g>
		<g transform="matrix(1.33 0 0 1.33 -368.07 307.12)" id="weWGiy-nOnWlNwMrJ1c_8"  >
<path style="stroke: none; stroke-width: 1; stroke-dasharray: none; stroke-linecap: butt; stroke-dashoffset: 0; stroke-linejoin: miter; stroke-miterlimit: 4; fill: rgb(0,0,0); fill-rule: nonzero; opacity: 1;" vector-effect="non-scaling-stroke"  transform=" translate(-1.57, 1.53)" d="M 2.6875 -2.1719 C 2.601562 -2.210963 2.51953 -2.242213 2.4375 -2.26565 C 2.351562 -2.285181 2.26953 -2.2969 2.1875 -2.2969 C 1.9375 -2.2969 1.74219 -2.210963 1.60938 -2.0469 C 1.48438 -1.89065 1.42188 -1.6640899999999998 1.42188 -1.37502 L 1.42188 -0.00001999999999990898 L 0.45313000000000003 -0.00001999999999990898 L 0.45313000000000003 -2.98442 L 1.42188 -2.98442 L 1.42188 -2.5000400000000003 C 1.53516 -2.6953500000000004 1.67188 -2.83598 1.82813 -2.92192 C 1.9921900000000001 -3.01567 2.18751 -3.0625400000000003 2.40625 -3.0625400000000003 L 2.51563 -3.0625400000000003 C 2.554693 -3.0625400000000003 2.60938 -3.0547280000000003 2.67188 -3.0469150000000003 z" stroke-linecap="round" />
</g>
		<g transform="matrix(1.33 0 0 1.33 -364.06 307.18)" id="89oN_zWhZDj2Q1nF7B62p"  >
<path style="stroke: none; stroke-width: 1; stroke-dasharray: none; stroke-linecap: butt; stroke-dashoffset: 0; stroke-linejoin: miter; stroke-miterlimit: 4; fill: rgb(0,0,0); fill-rule: nonzero; opacity: 1;" vector-effect="non-scaling-stroke"  transform=" translate(-1.88, 1.49)" d="M 1.875 -2.375 C 1.66406 -2.375 1.50391 -2.296875 1.39062 -2.14062 C 1.28515 -1.9921800000000003 1.23437 -1.7812400000000002 1.23437 -1.5000000000000002 C 1.23437 -1.2070300000000003 1.285151 -0.9843800000000003 1.39062 -0.8281200000000002 C 1.5039 -0.6796800000000002 1.66406 -0.6093700000000002 1.875 -0.6093700000000002 C 2.08203 -0.6093700000000002 2.24219 -0.6796830000000001 2.35938 -0.8281200000000002 C 2.47266 -0.9843700000000002 2.5312599999999996 -1.2070300000000003 2.5312599999999996 -1.5000000000000002 C 2.5312599999999996 -1.7812500000000002 2.472666 -1.9921900000000003 2.35938 -2.14062 C 2.24219 -2.29687 2.0820399999999997 -2.375 1.8749999999999998 -2.375 z M 1.875 -3.0625 C 2.39453 -3.0625 2.79688 -2.92188 3.0781 -2.64062 C 3.36716 -2.3671800000000003 3.5156 -1.98828 3.5156 -1.5000200000000001 C 3.5156 -1.0000200000000001 3.36716 -0.6094000000000002 3.0781 -0.3281200000000002 C 2.79685 -0.05468000000000017 2.39451 0.07812999999999981 1.875 0.07812999999999981 C 1.36328 0.07812999999999981 0.96094 -0.0546800000000002 0.6718999999999999 -0.3281200000000002 C 0.37892999999999993 -0.6093700000000002 0.23439999999999994 -1.0000000000000002 0.23439999999999994 -1.5000200000000001 C 0.23439999999999994 -1.9883000000000002 0.37892999999999993 -2.36721 0.6718999999999999 -2.64062 C 0.9609599999999999 -2.92187 1.3633099999999998 -3.0625 1.875 -3.0625 z" stroke-linecap="round" />
</g>
		<g transform="matrix(1.33 0 0 1.33 -357.74 307.13)" id="JZnGfYXZS0I8TWefO1Ojt"  >
<path style="stroke: none; stroke-width: 1; stroke-dasharray: none; stroke-linecap: butt; stroke-dashoffset: 0; stroke-linejoin: miter; stroke-miterlimit: 4; fill: rgb(0,0,0); fill-rule: nonzero; opacity: 1;" vector-effect="non-scaling-stroke"  transform=" translate(-2.86, 1.53)" d="M 3.2344 -2.5 C 3.34768 -2.67578 3.48831 -2.8125 3.6562799999999998 -2.90625 C 3.82034 -3.00781 4.00784 -3.0625 4.21878 -3.0625 C 4.550809999999999 -3.0625 4.80472 -2.95312 4.9844 -2.73438 C 5.1719 -2.52344 5.26565 -2.22266 5.26565 -1.8281299999999998 L 5.26565 -0.000029999999999752447 L 4.2969 -0.000029999999999752447 L 4.2969 -1.5625299999999998 C 4.304713 -1.5820609999999997 4.312525 -1.6015919999999997 4.312525 -1.6250299999999998 L 4.312525 -1.7344099999999998 C 4.312525 -1.9531599999999998 4.281275 -2.1094099999999996 4.218775 -2.2031599999999996 C 4.156275 -2.2969099999999996 4.054715 -2.3437799999999998 3.921895 -2.3437799999999998 C 3.734395 -2.3437799999999998 3.5859550000000002 -2.2656549999999998 3.484395 -2.1094 C 3.390645 -1.96096 3.343775 -1.75002 3.343775 -1.46878 L 3.343775 0.000020000000000131024 L 2.375025 0.000020000000000131024 L 2.375025 -1.5624799999999999 C 2.375025 -1.89451 2.343775 -2.1093599999999997 2.281275 -2.2031 C 2.226587 -2.29685 2.128935 -2.3437200000000002 1.984395 -2.3437200000000002 C 1.804705 -2.3437200000000002 1.664085 -2.2655950000000002 1.5625149999999999 -2.1093400000000004 C 1.4687649999999999 -1.9609000000000005 1.421895 -1.7499600000000004 1.421895 -1.4687200000000005 L 1.421895 0.00007999999999963592 L 0.4531449999999999 0.00007999999999963592 L 0.4531449999999999 -2.9843200000000003 L 1.421895 -2.9843200000000003 L 1.421895 -2.5468200000000003 C 1.535175 -2.7226000000000004 1.6640849999999998 -2.85151 1.8125149999999999 -2.9374400000000005 C 1.9687649999999999 -3.0194710000000007 2.140635 -3.0624400000000005 2.3281349999999996 -3.0624400000000005 C 2.5351649999999997 -3.0624400000000005 2.718755 -3.0077520000000004 2.8750149999999994 -2.9061900000000005 C 3.0312649999999994 -2.8124400000000005 3.1484549999999993 -2.6757200000000005 3.2343949999999992 -2.4999400000000005 z" stroke-linecap="round" />
</g>
		<g transform="matrix(1.33 0 0 1.33 -349.71 306.6)" id="IURsTFkeePha7AMx1_NA5"  >
<path style="stroke: none; stroke-width: 1; stroke-dasharray: none; stroke-linecap: butt; stroke-dashoffset: 0; stroke-linejoin: miter; stroke-miterlimit: 4; fill: rgb(0,0,0); fill-rule: nonzero; opacity: 1;" vector-effect="non-scaling-stroke"  transform=" translate(-1.28, 1.92)" d="M 1.5 -3.8438 L 1.5 -2.98442 L 2.48438 -2.98442 L 2.48438 -2.3125400000000003 L 1.4999999999999998 -2.3125400000000003 L 1.4999999999999998 -1.0313400000000004 C 1.4999999999999998 -0.8946200000000004 1.5234379999999998 -0.8008700000000004 1.5781249999999998 -0.7500900000000004 C 1.6406249999999998 -0.7071210000000003 1.7539049999999998 -0.6875900000000004 1.9218749999999998 -0.6875900000000004 L 2.406255 -0.6875900000000004 L 2.406255 -0.00009000000000036756 L 1.5937549999999998 -0.00009000000000036756 C 1.2070349999999999 -0.00009000000000036756 0.9375049999999998 -0.07821500000000037 0.7812549999999998 -0.23447000000000037 C 0.6250049999999998 -0.3907250000000004 0.5468749999999998 -0.6563500000000003 0.5468749999999998 -1.0313500000000004 L 0.5468749999999998 -2.3125500000000003 L 0.07812499999999978 -2.3125500000000003 L 0.07812499999999978 -2.9844300000000006 L 0.5468749999999998 -2.9844300000000006 L 0.5468749999999998 -3.8438100000000004 z" stroke-linecap="round" />
</g>
		<g transform="matrix(1.33 0 0 1.33 -345.32 306.4)" id="oV1rpZhKFSUXu95fwQHmb"  >
<path style="stroke: none; stroke-width: 1; stroke-dasharray: none; stroke-linecap: butt; stroke-dashoffset: 0; stroke-linejoin: miter; stroke-miterlimit: 4; fill: rgb(0,0,0); fill-rule: nonzero; opacity: 1;" vector-effect="non-scaling-stroke"  transform=" translate(-1.96, 2.08)" d="M 3.4688 -1.8281 L 3.4688 0 L 2.50005 0 L 2.50005 -1.3906 C 2.50005 -1.6484100000000002 2.492238 -1.8281 2.484425 -1.92185 C 2.472706 -2.02341 2.453175 -2.09763 2.421925 -2.1406 C 2.390675 -2.2031 2.335988 -2.24998 2.265675 -2.2812200000000002 C 2.203175 -2.320282 2.132865 -2.3437200000000002 2.0625549999999997 -2.3437200000000002 C 1.8516149999999998 -2.3437200000000002 1.6914649999999998 -2.2655950000000002 1.5781749999999997 -2.1093400000000004 C 1.4727049999999997 -1.9530900000000004 1.4219249999999997 -1.7382500000000005 1.4219249999999997 -1.4687200000000005 L 1.4219249999999997 0.00007999999999963592 L 0.45317499999999966 0.00007999999999963592 L 0.45317499999999966 -4.1561200000000005 L 1.4219249999999997 -4.1561200000000005 L 1.4219249999999997 -2.5467200000000005 C 1.5547349999999998 -2.7225000000000006 1.7070849999999997 -2.8514100000000004 1.8750449999999996 -2.9373400000000007 C 2.0391049999999997 -3.019371000000001 2.2187949999999996 -3.0623400000000007 2.4062949999999996 -3.0623400000000007 C 2.7500449999999996 -3.0623400000000007 3.0078549999999997 -2.952960000000001 3.1875449999999996 -2.7342200000000005 C 3.3750449999999996 -2.5232800000000006 3.4687949999999996 -2.2225000000000006 3.4687949999999996 -1.8279700000000005 z" stroke-linecap="round" />
</g>
		<g transform="matrix(1.33 0 0 1.33 -340.3 307.18)" id="KX6ydQtEUeZ-qnq_2QjiJ"  >
<path style="stroke: none; stroke-width: 1; stroke-dasharray: none; stroke-linecap: butt; stroke-dashoffset: 0; stroke-linejoin: miter; stroke-miterlimit: 4; fill: rgb(0,0,0); fill-rule: nonzero; opacity: 1;" vector-effect="non-scaling-stroke"  transform=" translate(-1.84, 1.49)" d="M 3.4375 -1.5 L 3.4375 -1.23438 L 1.2031 -1.23438 C 1.23435 -1.00391 1.31638 -0.8320400000000001 1.4531 -0.7187600000000001 C 1.5859100000000002 -0.6132900000000001 1.78122 -0.5625100000000001 2.0312200000000002 -0.5625100000000001 C 2.2382500000000003 -0.5625100000000001 2.4452800000000003 -0.585948 2.6562200000000002 -0.6406350000000001 C 2.8632500000000003 -0.7031350000000001 3.0781 -0.7968850000000001 3.2968400000000004 -0.9218850000000001 L 3.2968400000000004 -0.18750500000000003 C 3.0780900000000004 -0.09375500000000003 2.8515300000000003 -0.02344500000000002 2.6249600000000006 0.015614999999999962 C 2.3944900000000007 0.05467699999999996 2.1718400000000004 0.07811499999999996 1.9530800000000006 0.07811499999999996 C 1.4101100000000006 0.07811499999999996 0.9882400000000006 -0.05469500000000005 0.6874800000000005 -0.32813500000000007 C 0.3827900000000005 -0.6093850000000001 0.2343600000000005 -1.000015 0.2343600000000005 -1.500035 C 0.2343600000000005 -1.976595 0.3788900000000005 -2.3594150000000003 0.6718600000000006 -2.640635 C 0.9726400000000006 -2.921885 1.3788900000000006 -3.062515 1.8906600000000007 -3.062515 C 2.3594100000000005 -3.062515 2.7344100000000005 -2.9218949999999997 3.0156600000000005 -2.640635 C 3.2969100000000005 -2.3593750000000004 3.4375400000000003 -1.976575 3.4375400000000003 -1.500035 z M 2.46875 -1.82812 C 2.46875 -2.0039 2.410156 -2.14453 2.29687 -2.25 C 2.1914000000000002 -2.36328 2.0546800000000003 -2.42188 1.8906200000000002 -2.42188 C 1.7031200000000002 -2.42188 1.5507800000000003 -2.367193 1.4375000000000002 -2.26563 C 1.3203100000000003 -2.16016 1.2500000000000002 -2.01563 1.2187500000000002 -1.8281299999999998 z" stroke-linecap="round" />
</g>
		<g transform="matrix(1.33 0 0 1.33 -332.21 306.51)" id="cqp8FODojPbe1Q_tsPOYa"  >
<path style="stroke: none; stroke-width: 1; stroke-dasharray: none; stroke-linecap: butt; stroke-dashoffset: 0; stroke-linejoin: miter; stroke-miterlimit: 4; fill: rgb(0,0,0); fill-rule: nonzero; opacity: 1;" vector-effect="non-scaling-stroke"  transform=" translate(-2.29, 1.99)" d="M 0.5 -3.9844 L 1.6562 -3.9844 L 3.0937 -1.25 L 3.0937 -3.9844 L 4.07808 -3.9844 L 4.07808 0 L 2.92188 0 L 1.4843799999999998 -2.7344 L 1.4843799999999998 0 L 0.4999999999999998 0 z" stroke-linecap="round" />
</g>
		<g transform="matrix(1.33 0 0 1.33 -326.66 307.18)" id="HermQPYKYwdIk-tUE-rf8"  >
<path style="stroke: none; stroke-width: 1; stroke-dasharray: none; stroke-linecap: butt; stroke-dashoffset: 0; stroke-linejoin: miter; stroke-miterlimit: 4; fill: rgb(0,0,0); fill-rule: nonzero; opacity: 1;" vector-effect="non-scaling-stroke"  transform=" translate(-1.88, 1.49)" d="M 1.875 -2.375 C 1.66406 -2.375 1.50391 -2.296875 1.39062 -2.14062 C 1.28515 -1.9921800000000003 1.23437 -1.7812400000000002 1.23437 -1.5000000000000002 C 1.23437 -1.2070300000000003 1.285151 -0.9843800000000003 1.39062 -0.8281200000000002 C 1.5039 -0.6796800000000002 1.66406 -0.6093700000000002 1.875 -0.6093700000000002 C 2.08203 -0.6093700000000002 2.24219 -0.6796830000000001 2.35938 -0.8281200000000002 C 2.47266 -0.9843700000000002 2.5312599999999996 -1.2070300000000003 2.5312599999999996 -1.5000000000000002 C 2.5312599999999996 -1.7812500000000002 2.472666 -1.9921900000000003 2.35938 -2.14062 C 2.24219 -2.29687 2.0820399999999997 -2.375 1.8749999999999998 -2.375 z M 1.875 -3.0625 C 2.39453 -3.0625 2.79688 -2.92188 3.0781 -2.64062 C 3.36716 -2.3671800000000003 3.5156 -1.98828 3.5156 -1.5000200000000001 C 3.5156 -1.0000200000000001 3.36716 -0.6094000000000002 3.0781 -0.3281200000000002 C 2.79685 -0.05468000000000017 2.39451 0.07812999999999981 1.875 0.07812999999999981 C 1.36328 0.07812999999999981 0.96094 -0.0546800000000002 0.6718999999999999 -0.3281200000000002 C 0.37892999999999993 -0.6093700000000002 0.23439999999999994 -1.0000000000000002 0.23439999999999994 -1.5000200000000001 C 0.23439999999999994 -1.9883000000000002 0.37892999999999993 -2.36721 0.6718999999999999 -2.64062 C 0.9609599999999999 -2.92187 1.3633099999999998 -3.0625 1.875 -3.0625 z" stroke-linecap="round" />
</g>
		<g transform="matrix(1.33 0 0 1.33 -321.57 307.23)" id="zbXF5HD3pTVxm9S-Rlz9b"  >
<path style="stroke: none; stroke-width: 1; stroke-dasharray: none; stroke-linecap: butt; stroke-dashoffset: 0; stroke-linejoin: miter; stroke-miterlimit: 4; fill: rgb(0,0,0); fill-rule: nonzero; opacity: 1;" vector-effect="non-scaling-stroke"  transform=" translate(-1.93, 1.45)" d="M 0.42188 -1.1719 L 0.42188 -2.9844 L 1.39063 -2.9844 L 1.39063 -2.68752 L 1.39063 -2.0781400000000003 L 1.39063 -1.5937600000000003 C 1.39063 -1.3515700000000004 1.394536 -1.1757900000000003 1.406255 -1.0625100000000003 C 1.414067 -0.9570400000000003 1.437505 -0.8828200000000003 1.468755 -0.8437600000000003 C 1.507817 -0.7812600000000003 1.562505 -0.7265700000000003 1.625005 -0.6875100000000003 C 1.687505 -0.6562600000000003 1.7578150000000001 -0.6406350000000003 1.843755 -0.6406350000000003 C 2.039065 -0.6406350000000003 2.195315 -0.7187600000000003 2.312505 -0.8750150000000003 C 2.425785 -1.0312650000000003 2.4843849999999996 -1.2422050000000002 2.4843849999999996 -1.5156350000000003 L 2.4843849999999996 -2.9844350000000004 L 3.437505 -2.9844350000000004 L 3.437505 -0.00003500000000045134 L 2.4843849999999996 -0.00003500000000045134 L 2.4843849999999996 -0.43753500000000045 C 2.3359449999999997 -0.25784500000000043 2.1796949999999997 -0.12894500000000048 2.0156349999999996 -0.04691500000000043 C 1.8593849999999996 0.03511599999999958 1.6796949999999997 0.07808499999999957 1.4843849999999996 0.07808499999999957 C 1.1406349999999996 0.07808499999999957 0.8750049999999996 -0.023475000000000426 0.6875049999999996 -0.23441500000000043 C 0.5078149999999996 -0.45316500000000043 0.42188499999999957 -0.7656650000000005 0.42188499999999957 -1.1719150000000005 z" stroke-linecap="round" />
</g>
		<g transform="matrix(1.33 0 0 1.33 -316.34 307.13)" id="a4sJMFXqToTqHZatGkQbR"  >
<path style="stroke: none; stroke-width: 1; stroke-dasharray: none; stroke-linecap: butt; stroke-dashoffset: 0; stroke-linejoin: miter; stroke-miterlimit: 4; fill: rgb(0,0,0); fill-rule: nonzero; opacity: 1;" vector-effect="non-scaling-stroke"  transform=" translate(-1.96, 1.53)" d="M 3.4688 -1.8281 L 3.4688 0 L 2.50005 0 L 2.50005 -1.3906 C 2.50005 -1.6484100000000002 2.492238 -1.8281 2.484425 -1.92185 C 2.472706 -2.02341 2.453175 -2.09763 2.421925 -2.1406 C 2.390675 -2.2031 2.335988 -2.24998 2.265675 -2.2812200000000002 C 2.203175 -2.320282 2.132865 -2.3437200000000002 2.0625549999999997 -2.3437200000000002 C 1.8516149999999998 -2.3437200000000002 1.6914649999999998 -2.2655950000000002 1.5781749999999997 -2.1093400000000004 C 1.4727049999999997 -1.9530900000000004 1.4219249999999997 -1.7382500000000005 1.4219249999999997 -1.4687200000000005 L 1.4219249999999997 0.00007999999999963592 L 0.45317499999999966 0.00007999999999963592 L 0.45317499999999966 -2.9843200000000003 L 1.4219249999999997 -2.9843200000000003 L 1.4219249999999997 -2.5468200000000003 C 1.5547349999999998 -2.7226000000000004 1.7070849999999997 -2.85151 1.8750449999999996 -2.9374400000000005 C 2.0391049999999997 -3.0194710000000007 2.2187949999999996 -3.0624400000000005 2.4062949999999996 -3.0624400000000005 C 2.7500449999999996 -3.0624400000000005 3.0078549999999997 -2.9530600000000007 3.1875449999999996 -2.7343200000000003 C 3.3750449999999996 -2.5233800000000004 3.4687949999999996 -2.2226000000000004 3.4687949999999996 -1.8280700000000003 z" stroke-linecap="round" />
</g>
		<g transform="matrix(1.33 0 0 1.33 -308.37 306.51)" id="NQOV-M9g9L12dUSUEfwDP"  >
<path style="stroke: none; stroke-width: 1; stroke-dasharray: none; stroke-linecap: butt; stroke-dashoffset: 0; stroke-linejoin: miter; stroke-miterlimit: 4; fill: rgb(0,0,0); fill-rule: nonzero; opacity: 1;" vector-effect="non-scaling-stroke"  transform=" translate(-2.14, 1.99)" d="M 0.5 -3.9844 L 2.2031 -3.9844 C 2.71091 -3.9844 3.10154 -3.86721 3.375 -3.64065 C 3.64453 -3.4219 3.78125 -3.10159 3.78125 -2.6875299999999998 C 3.78125 -2.26956 3.64453 -1.9453399999999998 3.375 -1.7187799999999998 C 3.10156 -1.5000299999999998 2.71094 -1.3906599999999998 2.2031 -1.3906599999999998 L 1.53122 -1.3906599999999998 L 1.53122 -0.00005999999999972694 L 0.5000200000000001 -0.00005999999999972694 z M 1.5312 -3.2344 L 1.5312 -2.125 L 2.0937 -2.125 C 2.28901 -2.125 2.44136 -2.171875 2.5468200000000003 -2.26562 C 2.6601000000000004 -2.3671800000000003 2.7187 -2.50781 2.7187 -2.6875 C 2.7187 -2.86328 2.6601060000000003 -3 2.5468200000000003 -3.09375 C 2.4413500000000004 -3.1875 2.28901 -3.23437 2.0937 -3.23437 z" stroke-linecap="round" />
</g>
		<g transform="matrix(1.33 0 0 1.33 -303.79 307.12)" id="eEK8f8bsOUHBpPIovggRU"  >
<path style="stroke: none; stroke-width: 1; stroke-dasharray: none; stroke-linecap: butt; stroke-dashoffset: 0; stroke-linejoin: miter; stroke-miterlimit: 4; fill: rgb(0,0,0); fill-rule: nonzero; opacity: 1;" vector-effect="non-scaling-stroke"  transform=" translate(-1.57, 1.53)" d="M 2.6875 -2.1719 C 2.601562 -2.210963 2.51953 -2.242213 2.4375 -2.26565 C 2.351562 -2.285181 2.26953 -2.2969 2.1875 -2.2969 C 1.9375 -2.2969 1.74219 -2.210963 1.60938 -2.0469 C 1.48438 -1.89065 1.42188 -1.6640899999999998 1.42188 -1.37502 L 1.42188 -0.00001999999999990898 L 0.45313000000000003 -0.00001999999999990898 L 0.45313000000000003 -2.98442 L 1.42188 -2.98442 L 1.42188 -2.5000400000000003 C 1.53516 -2.6953500000000004 1.67188 -2.83598 1.82813 -2.92192 C 1.9921900000000001 -3.01567 2.18751 -3.0625400000000003 2.40625 -3.0625400000000003 L 2.51563 -3.0625400000000003 C 2.554693 -3.0625400000000003 2.60938 -3.0547280000000003 2.67188 -3.0469150000000003 z" stroke-linecap="round" />
</g>
		<g transform="matrix(1.33 0 0 1.33 -299.79 307.18)" id="8LmAeEXoKVSnuBAcxmtUd"  >
<path style="stroke: none; stroke-width: 1; stroke-dasharray: none; stroke-linecap: butt; stroke-dashoffset: 0; stroke-linejoin: miter; stroke-miterlimit: 4; fill: rgb(0,0,0); fill-rule: nonzero; opacity: 1;" vector-effect="non-scaling-stroke"  transform=" translate(-1.88, 1.49)" d="M 1.875 -2.375 C 1.66406 -2.375 1.50391 -2.296875 1.39062 -2.14062 C 1.28515 -1.9921800000000003 1.23437 -1.7812400000000002 1.23437 -1.5000000000000002 C 1.23437 -1.2070300000000003 1.285151 -0.9843800000000003 1.39062 -0.8281200000000002 C 1.5039 -0.6796800000000002 1.66406 -0.6093700000000002 1.875 -0.6093700000000002 C 2.08203 -0.6093700000000002 2.24219 -0.6796830000000001 2.35938 -0.8281200000000002 C 2.47266 -0.9843700000000002 2.5312599999999996 -1.2070300000000003 2.5312599999999996 -1.5000000000000002 C 2.5312599999999996 -1.7812500000000002 2.472666 -1.9921900000000003 2.35938 -2.14062 C 2.24219 -2.29687 2.0820399999999997 -2.375 1.8749999999999998 -2.375 z M 1.875 -3.0625 C 2.39453 -3.0625 2.79688 -2.92188 3.0781 -2.64062 C 3.36716 -2.3671800000000003 3.5156 -1.98828 3.5156 -1.5000200000000001 C 3.5156 -1.0000200000000001 3.36716 -0.6094000000000002 3.0781 -0.3281200000000002 C 2.79685 -0.05468000000000017 2.39451 0.07812999999999981 1.875 0.07812999999999981 C 1.36328 0.07812999999999981 0.96094 -0.0546800000000002 0.6718999999999999 -0.3281200000000002 C 0.37892999999999993 -0.6093700000000002 0.23439999999999994 -1.0000000000000002 0.23439999999999994 -1.5000200000000001 C 0.23439999999999994 -1.9883000000000002 0.37892999999999993 -2.36721 0.6718999999999999 -2.64062 C 0.9609599999999999 -2.92187 1.3633099999999998 -3.0625 1.875 -3.0625 z" stroke-linecap="round" />
</g>
		<g transform="matrix(1.33 0 0 1.33 -296.45 307.19)" id="RY-xANWkxihGdxLLmfKUZ"  >
<path style="stroke: none; stroke-width: 1; stroke-dasharray: none; stroke-linecap: butt; stroke-dashoffset: 0; stroke-linejoin: miter; stroke-miterlimit: 4; fill: rgb(0,0,0); fill-rule: nonzero; opacity: 1;" vector-effect="non-scaling-stroke"  transform=" translate(-0.62, 1.48)" d="M 0.45312 -2.9844 L 1.42187 -2.9844 L 1.42187 -0.04689999999999994 C 1.42187 0.34763000000000005 1.3203099999999999 0.64841 1.12499 0.8593500000000001 C 0.9374899999999999 1.0781 0.66015 1.18747 0.29686999999999997 1.18747 L -0.18751 1.18747 L -0.18751 0.5468500000000001 L -0.015630000000000005 0.5468500000000001 C 0.16015 0.5468500000000001 0.28125 0.503881 0.34375 0.42185000000000006 C 0.414062 0.3476310000000001 0.45313000000000003 0.19138000000000005 0.45313000000000003 -0.04689999999999994 z M 0.45312 -4.1563 L 1.42187 -4.1563 L 1.42187 -3.37505 L 0.45311999999999997 -3.37505 z" stroke-linecap="round" />
</g>
		<g transform="matrix(1.33 0 0 1.33 -292.33 307.18)" id="RagcG_YdzkrlhE6uz48wB"  >
<path style="stroke: none; stroke-width: 1; stroke-dasharray: none; stroke-linecap: butt; stroke-dashoffset: 0; stroke-linejoin: miter; stroke-miterlimit: 4; fill: rgb(0,0,0); fill-rule: nonzero; opacity: 1;" vector-effect="non-scaling-stroke"  transform=" translate(-1.84, 1.49)" d="M 3.4375 -1.5 L 3.4375 -1.23438 L 1.2031 -1.23438 C 1.23435 -1.00391 1.31638 -0.8320400000000001 1.4531 -0.7187600000000001 C 1.5859100000000002 -0.6132900000000001 1.78122 -0.5625100000000001 2.0312200000000002 -0.5625100000000001 C 2.2382500000000003 -0.5625100000000001 2.4452800000000003 -0.585948 2.6562200000000002 -0.6406350000000001 C 2.8632500000000003 -0.7031350000000001 3.0781 -0.7968850000000001 3.2968400000000004 -0.9218850000000001 L 3.2968400000000004 -0.18750500000000003 C 3.0780900000000004 -0.09375500000000003 2.8515300000000003 -0.02344500000000002 2.6249600000000006 0.015614999999999962 C 2.3944900000000007 0.05467699999999996 2.1718400000000004 0.07811499999999996 1.9530800000000006 0.07811499999999996 C 1.4101100000000006 0.07811499999999996 0.9882400000000006 -0.05469500000000005 0.6874800000000005 -0.32813500000000007 C 0.3827900000000005 -0.6093850000000001 0.2343600000000005 -1.000015 0.2343600000000005 -1.500035 C 0.2343600000000005 -1.976595 0.3788900000000005 -2.3594150000000003 0.6718600000000006 -2.640635 C 0.9726400000000006 -2.921885 1.3788900000000006 -3.062515 1.8906600000000007 -3.062515 C 2.3594100000000005 -3.062515 2.7344100000000005 -2.9218949999999997 3.0156600000000005 -2.640635 C 3.2969100000000005 -2.3593750000000004 3.4375400000000003 -1.976575 3.4375400000000003 -1.500035 z M 2.46875 -1.82812 C 2.46875 -2.0039 2.410156 -2.14453 2.29687 -2.25 C 2.1914000000000002 -2.36328 2.0546800000000003 -2.42188 1.8906200000000002 -2.42188 C 1.7031200000000002 -2.42188 1.5507800000000003 -2.367193 1.4375000000000002 -2.26563 C 1.3203100000000003 -2.16016 1.2500000000000002 -2.01563 1.2187500000000002 -1.8281299999999998 z" stroke-linecap="round" />
</g>
		<g transform="matrix(1.33 0 0 1.33 -287.76 307.18)" id="8SXaRr_Uitqi6wdI72Cc6"  >
<path style="stroke: none; stroke-width: 1; stroke-dasharray: none; stroke-linecap: butt; stroke-dashoffset: 0; stroke-linejoin: miter; stroke-miterlimit: 4; fill: rgb(0,0,0); fill-rule: nonzero; opacity: 1;" vector-effect="non-scaling-stroke"  transform=" translate(-1.55, 1.49)" d="M 2.875 -2.8906 L 2.875 -2.12498 C 2.75 -2.207011 2.61719 -2.26951 2.48438 -2.31248 C 2.34766 -2.351542 2.21094 -2.37498 2.07813 -2.37498 C 1.80469 -2.37498 1.5976599999999999 -2.296855 1.4531299999999998 -2.1406 C 1.30469 -1.98435 1.2343799999999998 -1.7695100000000001 1.2343799999999998 -1.49998 C 1.2343799999999998 -1.21873 1.3046929999999999 -0.9999800000000001 1.4531299999999998 -0.8437300000000001 C 1.5976599999999999 -0.6874800000000001 1.80469 -0.6093500000000001 2.07813 -0.6093500000000001 C 2.22266 -0.6093500000000001 2.3632899999999997 -0.628881 2.5000099999999996 -0.6718500000000001 C 2.6328199999999997 -0.710913 2.7578199999999997 -0.7812300000000001 2.8750099999999996 -0.87497 L 2.8750099999999996 -0.09372000000000003 C 2.7265699999999997 -0.031220000000000026 2.57813 0.007839999999999972 2.4218899999999994 0.031279999999999974 C 2.2656399999999994 0.06252999999999997 2.1093899999999994 0.07815499999999997 1.9531399999999994 0.07815499999999997 C 1.4101699999999995 0.07815499999999997 0.9882999999999994 -0.05465500000000004 0.6875399999999994 -0.328095 C 0.38284999999999936 -0.609345 0.23441999999999935 -0.9999750000000001 0.23441999999999935 -1.499995 C 0.23441999999999935 -1.988275 0.3828599999999993 -2.367185 0.6875399999999994 -2.6405950000000002 C 0.9883199999999994 -2.9218450000000002 1.4101999999999992 -3.062475 1.9531399999999994 -3.062475 C 2.1093899999999994 -3.062475 2.2656399999999994 -3.04685 2.4218899999999994 -3.0156 C 2.5781399999999994 -2.992163 2.7265799999999993 -2.9531 2.8750099999999996 -2.8906 z" stroke-linecap="round" />
</g>
		<g transform="matrix(1.33 0 0 1.33 -283.8 306.6)" id="uJGViqUBIrSEVQL1RoqSE"  >
<path style="stroke: none; stroke-width: 1; stroke-dasharray: none; stroke-linecap: butt; stroke-dashoffset: 0; stroke-linejoin: miter; stroke-miterlimit: 4; fill: rgb(0,0,0); fill-rule: nonzero; opacity: 1;" vector-effect="non-scaling-stroke"  transform=" translate(-1.28, 1.92)" d="M 1.5 -3.8438 L 1.5 -2.98442 L 2.48438 -2.98442 L 2.48438 -2.3125400000000003 L 1.4999999999999998 -2.3125400000000003 L 1.4999999999999998 -1.0313400000000004 C 1.4999999999999998 -0.8946200000000004 1.5234379999999998 -0.8008700000000004 1.5781249999999998 -0.7500900000000004 C 1.6406249999999998 -0.7071210000000003 1.7539049999999998 -0.6875900000000004 1.9218749999999998 -0.6875900000000004 L 2.406255 -0.6875900000000004 L 2.406255 -0.00009000000000036756 L 1.5937549999999998 -0.00009000000000036756 C 1.2070349999999999 -0.00009000000000036756 0.9375049999999998 -0.07821500000000037 0.7812549999999998 -0.23447000000000037 C 0.6250049999999998 -0.3907250000000004 0.5468749999999998 -0.6563500000000003 0.5468749999999998 -1.0313500000000004 L 0.5468749999999998 -2.3125500000000003 L 0.07812499999999978 -2.3125500000000003 L 0.07812499999999978 -2.9844300000000006 L 0.5468749999999998 -2.9844300000000006 L 0.5468749999999998 -3.8438100000000004 z" stroke-linecap="round" />
</g>
</g>
</g>
</svg>